<svg width="172" height="32" viewBox="0 0 172 32" fill="none" xmlns="http://www.w3.org/2000/svg">
<path d="M99.2568 31.0302L112.377 1.3381C112.584 0.887539 112.341 0.500055 111.836 0.500055H102.645C102.376 0.515339 102.116 0.60181 101.891 0.750632C101.666 0.899454 101.485 1.10529 101.365 1.34711L88.4072 31.0302C88.218 31.4897 88.4613 31.8682 88.9569 31.8682H97.9772C98.4818 31.8682 99.0585 31.4897 99.2568 31.0302ZM146.305 23.0372L166.67 0.509066H142.853L137.464 9.1869H146.809L126.11 31.8772H151.315L160.705 23.0372H146.305ZM59.1477 0.500055H43.378C42.9105 0.527147 42.4585 0.677252 42.0676 0.935181C41.6768 1.19311 41.361 1.54971 41.1522 1.96889L28.7437 30.4084C28.3833 31.2194 28.8248 31.8772 29.7079 31.8772H37.5207C38.4038 31.8772 39.4131 31.2194 39.7555 30.4174L43.2969 22.3523H46.9645C48.1089 22.2802 48.5955 22.7038 47.9647 24.0284L45.2433 30.4084C44.9009 31.2194 45.3335 31.8772 46.2166 31.8772H54.0293C54.4986 31.8526 54.9529 31.7036 55.3456 31.4455C55.7384 31.1874 56.0553 30.8294 56.2641 30.4084L59.8145 22.1991C60.9319 19.5318 59.3189 17.4682 56.976 17.3601C59.0486 16.6122 60.959 14.5486 61.815 12.6743L63.6533 8.34886C65.8701 3.32058 64.2931 0.436976 59.1477 0.509066M54.552 9.47526L52.6055 13.7556C52.155 14.7829 51.5062 14.864 50.8573 14.837H46.4689L49.4065 8.16863H53.6148C54.6421 8.23171 54.9034 8.60117 54.552 9.47526ZM89.84 0.491044H73.1332C72.7986 0.508481 72.4746 0.614441 72.1944 0.798096C71.9141 0.98175 71.6877 1.23651 71.5382 1.53635L58.7512 30.8229C58.5079 31.3996 58.8053 31.8592 59.4361 31.8592H77.3234C82.9915 31.7781 86.2445 30.5255 88.8308 24.5241L90.6691 20.5231C92.1109 17.0988 90.6961 15.6119 87.9927 15.1794C90.2455 14.4855 91.9396 12.3679 92.6696 10.5025L94.1654 7.33058C96.0037 3.0953 94.4718 0.436976 89.831 0.491044M81.6398 20.1356L80.5044 22.4154C79.9367 24.0014 78.9454 24.4339 77.5487 24.452H72.3221L74.8273 18.5496H80.0538C81.5316 18.6577 82.1084 19.0182 81.6398 20.1356ZM84.6405 9.62845L83.8565 11.4307L83.7394 11.665C83.6092 12.0409 83.3583 12.3633 83.0258 12.5817C82.6933 12.8001 82.2978 12.9024 81.9011 12.8725H77.3685L79.441 8.09654H84.0638C84.8928 8.15061 85.028 8.69128 84.6405 9.62845ZM115.27 0.500055L111.386 9.1869H116.928C117.306 9.1869 117.487 9.45724 117.333 9.80868L107.646 31.2555C107.484 31.5979 107.673 31.8772 108.052 31.8772H117.919C118.298 31.8772 118.73 31.5979 118.883 31.2464L128.183 9.80868C128.272 9.62836 128.407 9.47494 128.575 9.36411C128.743 9.25327 128.937 9.18901 129.138 9.17789H134.824L140.177 0.500055H115.27ZM33.4026 11.1874L34.6281 8.51106C37.0972 2.87001 35.4661 0.445988 30.6181 0.509066H18.9485C14.1455 0.445988 10.1445 3.14936 7.92775 8.17764L4.32324 18.3604H0.916992L7.43213 27.1553L18.2006 18.3604H15.4612L18.6241 11.0162C19.1377 9.80868 20.0208 9.23196 20.967 9.1869H22.8053C23.2379 9.20492 23.5352 9.34009 23.7064 9.52933L29.4196 4.72633L33.4026 11.1874Z" fill="#191825" fill-opacity="0.37"/>
<path d="M7.18867 29.7423L2.39469 23.6688L2.14237 24.2094C-0.0834088 29.2738 0.286053 31.7969 5.08905 31.869H16.6054C21.3724 31.7969 25.5446 29.2738 27.7794 24.2094L31.2037 16.3606H34.2675L29.041 7.55664L18.3626 16.3606H21.2913L19.1286 21.3619C18.6059 22.4252 17.8129 23.0019 16.9659 23.038H15.434L7.18867 29.7423Z" fill="#191825" fill-opacity="0.37"/>
<path d="M170.464 0.320432C170.888 0.320432 171.248 0.47367 171.546 0.771132C171.843 1.06859 171.996 1.42915 171.996 1.85281C171.996 2.26746 171.843 2.62802 171.546 2.93449C171.248 3.24097 170.888 3.38519 170.464 3.38519C170.262 3.38829 170.062 3.34988 169.876 3.27234C169.69 3.19481 169.522 3.0798 169.382 2.93449C169.085 2.62802 168.932 2.26746 168.932 1.85281C168.932 1.43817 169.085 1.05958 169.382 0.771132C169.522 0.62625 169.691 0.511533 169.877 0.434028C170.063 0.356522 170.263 0.317866 170.464 0.320432ZM170.464 3.09674C170.629 3.10048 170.794 3.07043 170.947 3.00844C171.101 2.94644 171.24 2.8538 171.356 2.73618C171.474 2.62009 171.567 2.48097 171.629 2.32746C171.691 2.17394 171.721 2.00931 171.717 1.8438C171.72 1.67979 171.69 1.51688 171.628 1.365C171.566 1.21313 171.473 1.07547 171.356 0.960426C171.24 0.842373 171.101 0.749449 170.948 0.687423C170.794 0.625397 170.63 0.595594 170.464 0.599866C170.3 0.5963 170.137 0.626461 169.985 0.688482C169.833 0.750502 169.695 0.843062 169.581 0.960426C169.337 1.2038 169.22 1.50127 169.22 1.8438C169.22 2.18633 169.337 2.49281 169.581 2.73618C169.824 2.97956 170.121 3.09674 170.464 3.09674ZM171.248 2.66407H170.888L170.437 2.01506H170.248V2.66407H169.923V1.01451H170.437C170.617 1.01451 170.761 1.05958 170.87 1.14071C170.978 1.23085 171.041 1.34803 171.041 1.50127C171.041 1.69957 170.933 1.85281 170.725 1.93394L171.248 2.66407ZM170.257 1.74464H170.428C170.635 1.74464 170.734 1.66352 170.734 1.51028C170.734 1.35704 170.644 1.28493 170.437 1.28493H170.257V1.74464Z" fill="#191825" fill-opacity="0.37"/>
</svg>
