<svg width="102" height="32" viewBox="0 0 102 32" fill="none" xmlns="http://www.w3.org/2000/svg">
<path d="M54.0112 8.24961C54.0112 9.38692 53.0948 10.3027 51.9575 10.3027C50.8202 10.3027 49.9044 9.38692 49.9044 8.24961C49.9044 7.1123 50.7889 6.19652 51.9575 6.19652C53.127 6.22808 54.0112 7.14418 54.0112 8.24961ZM45.5451 12.388V12.8935C45.5451 12.8935 44.5662 11.6294 42.4813 11.6294C39.0384 11.6294 36.3529 14.2514 36.3529 17.8839C36.3529 21.4852 39.0069 24.1385 42.4813 24.1385C44.5978 24.1385 45.5451 22.8434 45.5451 22.8434V23.3802C45.5451 23.633 45.7351 23.822 45.9876 23.822H48.5459V11.9443H45.9876C45.7351 11.9452 45.5451 12.1668 45.5451 12.388ZM45.5451 20.0004C45.0718 20.6956 44.1238 21.2959 42.9868 21.2959C40.9653 21.2959 39.4171 20.0323 39.4171 17.8839C39.4171 15.7359 40.9653 14.4723 42.9868 14.4723C44.0926 14.4723 45.1033 15.1041 45.5451 15.7674V20.0004ZM50.4415 11.9452H53.4738V23.8229H50.4415V11.9452ZM95.7398 11.629C93.6548 11.629 92.6753 12.8932 92.6753 12.8932V6.22808H89.643V23.8229H92.202C92.4547 23.8229 92.6438 23.6017 92.6438 23.3805V22.8437C92.6438 22.8437 93.6233 24.1388 95.7076 24.1388C99.1511 24.1388 101.836 21.4861 101.836 17.8849C101.836 14.2836 99.1511 11.629 95.7398 11.629ZM95.2343 21.264C94.0651 21.264 93.1493 20.6644 92.6753 19.9689V15.7358C93.1493 15.1041 94.1601 14.4408 95.2343 14.4408C97.2558 14.4408 98.8037 15.7043 98.8037 17.8524C98.8037 20.0004 97.2561 21.264 95.2343 21.264ZM88.0639 16.7788V23.8545H85.031V17.1259C85.031 15.1678 84.3992 14.3776 82.6945 14.3776C81.7787 14.3776 80.8307 14.8516 80.2296 15.5468V23.8233H77.1979V11.9456H79.5978C79.8506 11.9456 80.0403 12.1668 80.0403 12.388V12.8935C80.9248 11.9771 82.0933 11.6294 83.2619 11.6294C84.5889 11.6294 85.6946 12.009 86.5792 12.767C87.6527 13.6515 88.0639 14.7885 88.0639 16.7788ZM69.8367 11.629C67.7523 11.629 66.7728 12.8932 66.7728 12.8932V6.22808H63.7405V23.8229H66.2988C66.5516 23.8229 66.7412 23.6017 66.7412 23.3805V22.8437C66.7412 22.8437 67.7208 24.1388 69.8051 24.1388C73.2486 24.1388 75.9335 21.4861 75.9335 17.8849C75.965 14.2833 73.2802 11.629 69.8367 11.629ZM69.3311 21.264C68.1626 21.264 67.2468 20.6644 66.7728 19.9689V15.7358C67.2468 15.1041 68.2576 14.4408 69.3311 14.4408C71.3533 14.4408 72.9008 15.7043 72.9008 17.8524C72.9008 20.0004 71.3533 21.264 69.3311 21.264ZM61.1184 11.629C62.0342 11.629 62.5082 11.7875 62.5082 11.7875V14.5985C62.5082 14.5985 59.9811 13.7456 58.402 15.5465V23.8542H55.3691V11.9452H57.928C58.1808 11.9452 58.3698 12.1665 58.3698 12.3877V12.8932C58.9391 12.2296 60.1711 11.629 61.1184 11.629ZM29.625 22.7487C29.4672 22.3697 29.3091 21.9592 29.1513 21.6114C28.8982 21.0431 28.6455 20.5057 28.4249 20.0004L28.3933 19.9689C26.2134 15.2303 23.8763 10.4292 21.412 5.6913L21.3173 5.50132C21.0581 5.00981 20.8056 4.51486 20.5596 4.01657C20.2434 3.4476 19.9279 2.84802 19.4223 2.27905C18.4116 1.01551 16.9584 0.320312 15.4108 0.320312C13.8311 0.320312 12.4098 1.01551 11.3678 2.21562C10.8938 2.78396 10.546 3.38418 10.2305 3.95315C9.98392 4.45112 9.73134 4.94607 9.47277 5.43789L9.37779 5.62786C6.94538 10.3658 4.5764 15.1672 2.39677 19.9055L2.3649 19.9683C2.14401 20.4744 1.89092 21.0112 1.63815 21.5792C1.48036 21.927 1.32258 22.306 1.16479 22.7165C0.753923 23.8851 0.627374 24.9909 0.785789 26.1285C1.13323 28.4978 2.71234 30.4871 4.89229 31.3723C5.71371 31.72 6.56669 31.8778 7.45092 31.8778C7.70369 31.8778 8.01927 31.8463 8.27235 31.8144C9.31499 31.6882 10.3889 31.341 11.4315 30.7408C12.7266 30.0141 13.9586 28.9721 15.3483 27.4558C16.7381 28.9721 18.0017 30.0141 19.2652 30.7408C20.3081 31.341 21.3817 31.6882 22.424 31.8144C22.6768 31.8466 22.993 31.8778 23.2458 31.8778C24.1303 31.8778 25.0145 31.72 25.8041 31.3723C28.0156 30.4871 29.5631 28.4662 29.9109 26.1285C30.1618 25.023 30.0355 23.9179 29.625 22.7487ZM15.379 24.3913C13.673 22.2432 12.5672 20.2217 12.1886 18.5163C12.0308 17.7896 11.9989 17.1578 12.0939 16.5891C12.1567 16.0836 12.3467 15.6412 12.5994 15.2622C13.1996 14.4098 14.2104 13.8724 15.3793 13.8724C16.5485 13.8724 17.5908 14.378 18.1594 15.2622C18.4122 15.6412 18.6015 16.0839 18.6653 16.5891C18.7596 17.1581 18.7281 17.8211 18.5703 18.5163C18.19 20.1901 17.0843 22.212 15.379 24.3913ZM27.9821 25.876C27.7612 27.5186 26.6555 28.9405 25.1079 29.5723C24.3499 29.8878 23.5282 29.9828 22.7074 29.8878C21.9179 29.7929 21.1277 29.5401 20.3069 29.0667C19.1696 28.4343 18.0326 27.4558 16.7056 26.0022C18.7903 23.4439 20.0538 21.1059 20.5278 19.0216C20.749 18.042 20.7809 17.1578 20.6856 16.3361C20.5597 15.5465 20.275 14.8198 19.8329 14.188C18.8531 12.766 17.2102 11.9452 15.3786 11.9452C13.5471 11.9452 11.9042 12.7982 10.925 14.188C10.4829 14.8198 10.1983 15.5465 10.072 16.3361C9.9458 17.1578 9.97705 18.0736 10.2298 19.0216C10.7035 21.1059 11.9986 23.4752 14.0517 26.0338C12.7566 27.487 11.5877 28.4665 10.4504 29.0983C9.62897 29.5723 8.83974 29.8251 8.05019 29.9194C7.19752 30.0144 6.37578 29.8879 5.64934 29.6038C4.10179 28.9721 2.99604 27.5501 2.77514 25.9076C2.68047 25.118 2.74327 24.3285 3.05947 23.4439C3.15382 23.1277 3.31224 22.8122 3.47002 22.4332C3.69123 21.9276 3.94337 21.3902 4.19646 20.8534L4.22834 20.7906C6.40766 16.0836 8.74507 11.2822 11.1775 6.60739L11.2721 6.41742C11.5252 5.94407 11.778 5.43853 12.0305 4.96454C12.2832 4.459 12.5672 3.98501 12.915 3.57414C13.5783 2.81678 14.4625 2.40559 15.4421 2.40559C16.4216 2.40559 17.3058 2.81678 17.9691 3.57414C18.3169 3.98596 18.6009 4.45995 18.8537 4.96454C19.1068 5.43853 19.3595 5.94407 19.6117 6.41742L19.7067 6.60739C22.102 11.3017 24.4084 16.0408 26.6246 20.8222V20.8537C26.8776 21.3599 27.0985 21.9279 27.3513 22.4341C27.5091 22.8125 27.6672 23.1281 27.7619 23.4443C28.014 24.2647 28.1087 25.0549 27.9821 25.876Z" fill="#191825" fill-opacity="0.37"/>
</svg>
