<svg width="210" height="32" viewBox="0 0 210 32" fill="none" xmlns="http://www.w3.org/2000/svg">
<path d="M23.3237 19.2814C25.1202 24.1487 30.5348 26.6401 35.4035 24.8478C40.2695 23.0429 42.7665 17.6339 40.963 12.7651C39.1651 7.89086 33.7588 5.40359 28.8831 7.20011C24.0116 9.00359 21.5244 14.4099 23.3237 19.2814Z" fill="white"/>
<path d="M11.2992 25.3904C16.4924 25.3904 20.7024 21.1804 20.7024 15.9872C20.7024 10.7939 16.4924 6.58398 11.2992 6.58398C6.10595 6.58398 1.896 10.7939 1.896 15.9872C1.896 21.1804 6.10595 25.3904 11.2992 25.3904Z" fill="white"/>
<path d="M12.9023 15.8877C12.9023 16.8459 12.1238 17.6313 11.1657 17.6313C10.2034 17.6313 9.42627 16.8473 9.42627 15.8877C9.42627 14.931 10.2034 14.1553 11.1657 14.1553C12.1238 14.1567 12.9023 14.931 12.9023 15.8877Z" fill="#191825" fill-opacity="0.37"/>
<path d="M33.8571 15.8877C33.8571 16.8459 33.0814 17.6313 32.1232 17.6313C31.1581 17.6313 30.3838 16.8473 30.3838 15.8877C30.3838 14.931 31.1581 14.1553 32.1232 14.1553C33.0828 14.1567 33.8571 14.931 33.8571 15.8877Z" fill="#191825" fill-opacity="0.37"/>
<path d="M5.99854 15.8873C5.99854 18.7381 8.3173 21.0527 11.1681 21.0527C14.0119 21.0527 16.3292 18.7381 16.3292 15.8873C16.3292 13.0435 14.0105 10.7275 11.1681 10.7275C8.3187 10.7303 5.99854 13.0449 5.99854 15.8873ZM7.77974 15.8873C7.77974 14.0226 9.3033 12.506 11.1708 12.506C13.0356 12.506 14.5508 14.0267 14.5508 15.8873C14.5508 17.7577 13.0356 19.277 11.1708 19.277C9.3033 19.2784 7.77974 17.7604 7.77974 15.8873Z" fill="#191825" fill-opacity="0.37"/>
<path d="M26.9565 15.8873C26.9565 18.7381 29.2725 21.0527 32.1219 21.0527C34.9671 21.0527 37.2817 18.7381 37.2817 15.8873C37.2817 13.0435 34.9671 10.7275 32.1219 10.7275C29.2739 10.7303 26.9565 13.0449 26.9565 15.8873ZM28.7377 15.8873C28.7377 14.0226 30.2571 12.506 32.1261 12.506C33.9908 12.506 35.5046 14.0267 35.5046 15.8873C35.5046 17.7577 33.9908 19.277 32.1261 19.277C30.2543 19.2784 28.7377 17.7604 28.7377 15.8873Z" fill="#191825" fill-opacity="0.37"/>
<path d="M28.5209 6.20993C29.61 5.80885 30.7241 5.61388 31.8243 5.58324C28.8273 4.24211 25.4348 3.5625 21.6761 3.5625C17.9465 3.5625 14.5039 4.25743 11.5083 5.53867C16.9299 5.64591 21.3376 9.89211 21.7178 15.2441C21.8098 14.0158 22.1106 12.8014 22.6412 11.651C23.8096 9.10665 25.9 7.17643 28.5209 6.20993Z" fill="white"/>
<path d="M40.5508 9.8101C41.041 7.71137 42.5966 5.61125 42.5966 5.61125L35.6152 5.60707C31.7005 3.07941 26.946 1.73828 21.6789 1.73828C16.2114 1.73828 11.2744 3.11144 7.38197 5.65721L0.837891 5.66278C0.837891 5.66278 2.37538 7.73922 2.87256 9.82263C1.59967 11.5537 0.843461 13.6803 0.843461 15.9893C0.843461 21.7535 5.53531 26.4426 11.3023 26.4426C14.5987 26.4426 17.5386 24.9065 19.4563 22.5194L21.6831 25.8535L23.9267 22.4902C24.9364 23.7742 26.2385 24.8159 27.7648 25.522C30.3036 26.6891 33.1488 26.8046 35.7684 25.8368C41.1789 23.8355 43.9572 17.8039 41.956 12.4004C41.605 11.4493 41.1259 10.5844 40.5508 9.8101ZM21.6775 3.56405C25.4363 3.56405 28.8288 4.24366 31.8258 5.58618C30.7242 5.61543 29.6115 5.81179 28.5224 6.21009C25.9015 7.17659 23.8111 9.10681 22.6454 11.647C22.1148 12.7973 21.8154 14.0117 21.7221 15.2401C21.3391 9.89087 16.9314 5.64467 11.5098 5.53465C14.504 4.25759 17.9452 3.56405 21.6775 3.56405ZM18.2126 20.6603C16.7113 22.8746 14.1711 24.3341 11.2995 24.3341C6.69539 24.3341 2.94915 20.5851 2.94915 15.9907C2.94915 11.3838 6.69678 7.64174 11.2995 7.64174C15.9022 7.64174 19.6485 11.3838 19.6485 15.9907C19.6485 16.272 19.5941 16.5366 19.5649 16.8082C19.4256 18.2189 18.9716 19.5406 18.2126 20.6603ZM35.0373 23.8578C32.9455 24.6265 30.6769 24.5416 28.6506 23.6071C27.2133 22.9414 26.0366 21.8983 25.1884 20.6032C24.843 20.0795 24.5394 19.5239 24.3152 18.9153C24.0604 18.2273 23.9336 17.5184 23.8654 16.804C23.7261 15.3556 23.9364 13.8906 24.5603 12.5327C25.4962 10.5064 27.1618 8.96476 29.2536 8.19044C33.5736 6.59725 38.3824 8.81296 39.9784 13.1316C41.573 17.4502 39.3559 22.259 35.0373 23.8578Z" fill="#191825" fill-opacity="0.37"/>
<path d="M54.9306 3.26493L51.8696 4.32195C51.8696 4.32195 51.8696 7.98741 51.8696 8.31608C51.5492 8.31608 48.4771 8.31608 48.4771 8.31608V10.9942C48.4771 10.9942 51.4545 10.9942 51.7776 10.9942C51.7776 11.3423 51.7776 19.5924 51.7776 19.5924C51.7776 23.6784 53.1689 25.3552 56.5906 25.3552C57.4583 25.3552 58.2869 25.248 59.1183 25.021L59.2534 24.9875L59.2158 22.2106L58.9818 22.2997C58.3092 22.5323 57.7828 22.6465 57.3761 22.6465C55.769 22.6465 55.1729 21.7426 55.1729 19.3027C55.1729 19.3027 55.1729 11.3409 55.1729 10.9983C55.4988 10.9983 59.0877 10.9983 59.0877 10.9983V8.31608C59.0877 8.31608 55.5002 8.31608 55.1729 8.31608C55.1729 7.98463 55.1729 3.18555 55.1729 3.18555L54.9306 3.26493Z" fill="#191825" fill-opacity="0.37"/>
<path d="M65.5148 11.0293C65.5148 10.0865 65.5148 8.31646 65.5148 8.31646H62.4092V25.0603H65.8045V16.6557C65.8045 13.1322 67.2849 11.1909 69.9671 11.1909C70.3557 11.1909 70.7331 11.2494 71.1926 11.3789L71.4127 11.4416L71.5241 8.1368L70.0632 8.02539C68.0954 8.024 66.5064 9.08659 65.5148 11.0293Z" fill="#191825" fill-opacity="0.37"/>
<path d="M77.5761 8.31476H74.3619V25.06H77.7572V8.31476H77.5761ZM74.0332 3.40844C74.0332 4.52256 74.9412 5.42639 76.0526 5.42639C77.1667 5.42639 78.0719 4.52256 78.0719 3.40844C78.0719 2.29571 77.1667 1.3877 76.0526 1.3877C74.9412 1.38492 74.0332 2.29571 74.0332 3.40844Z" fill="#191825" fill-opacity="0.37"/>
<path d="M89.7478 7.92188C87.4178 7.92188 85.4584 9.02486 84.1521 11.0317C84.1521 10.2295 84.1521 8.31182 84.1521 8.31182H81.0479V31.8769H84.4459C84.4459 31.8769 84.4459 23.6477 84.4459 22.7425C85.6715 24.4095 87.429 25.3259 89.6168 25.3259C93.909 25.3259 96.6818 21.8038 96.6818 16.3655C96.6818 11.3158 93.8937 7.92188 89.7478 7.92188ZM88.7994 22.5795C86.1129 22.5795 84.4445 20.2831 84.4445 16.5939C84.4445 13.0329 86.2048 10.7322 88.9289 10.7322C91.554 10.7322 93.1235 12.9131 93.1235 16.5591C93.1249 20.2705 91.4663 22.5795 88.7994 22.5795Z" fill="#191825" fill-opacity="0.37"/>
<path d="M106.605 7.92285C104.529 7.92285 102.71 8.31558 101.042 9.11775L100.939 9.16788L100.975 12.066L101.242 11.9156C102.837 11.0243 104.347 10.5689 105.721 10.5689C108.181 10.5689 109.593 11.9783 109.593 14.4419C109.593 14.4419 109.593 14.5129 109.593 14.5853C109.293 14.5853 107.65 14.5853 107.65 14.5853C102.06 14.5853 98.9849 16.6102 98.9849 20.2813C98.9849 23.2295 101.205 25.2906 104.383 25.2906C106.721 25.2906 108.53 24.3715 109.82 22.6418C109.82 23.3145 109.82 25.0594 109.82 25.0594H112.888V14.9265C112.886 10.282 110.774 7.92285 106.605 7.92285ZM109.587 17.9917C109.587 20.8759 107.852 22.7421 105.167 22.7421C103.522 22.7421 102.375 21.6614 102.375 20.1155C102.375 18.0836 104.317 16.9681 107.844 16.9681C107.844 16.9681 109.296 16.9681 109.59 16.9681C109.587 17.2286 109.587 17.9917 109.587 17.9917Z" fill="#191825" fill-opacity="0.37"/>
<path d="M127.307 0.320312C127.307 0.320312 127.307 9.65526 127.307 10.5883C126.055 8.84753 124.313 7.92559 122.075 7.92559C117.92 7.92559 115.129 11.3459 115.129 16.4291C115.129 21.6655 117.961 25.3226 122.006 25.3226C124.403 25.3226 126.272 24.2614 127.567 22.1989C127.567 23.0331 127.567 25.0622 127.567 25.0622H130.706V0.320312H127.307ZM122.886 22.5122C120.299 22.5122 118.692 20.2561 118.692 16.6241C118.692 12.9879 120.313 10.6371 122.825 10.6371C125.63 10.6371 127.304 12.8737 127.304 16.6241C127.307 20.2074 125.577 22.5122 122.886 22.5122Z" fill="#191825" fill-opacity="0.37"/>
<path d="M145.878 8.31543L141.064 17.9846L136.613 8.31543H132.787L140.993 25.0607L149.421 8.31543H145.878Z" fill="#191825" fill-opacity="0.37"/>
<path d="M154.364 8.31573H151.148V25.061H154.548V8.31573H154.364ZM150.824 3.40942C150.824 4.52354 151.73 5.42737 152.843 5.42737C153.961 5.42737 154.862 4.52354 154.862 3.40942C154.862 2.29669 153.959 1.38868 152.843 1.38868C151.732 1.38589 150.824 2.29669 150.824 3.40942Z" fill="#191825" fill-opacity="0.37"/>
<path d="M158.529 12.6094C158.529 14.9643 160.147 16.2052 163.136 17.6675C165.02 18.5936 166.005 19.1395 166.005 20.4444C166.005 21.7828 164.796 22.6476 162.919 22.6476C161.592 22.6476 160.118 22.2744 158.659 21.5572L158.411 21.4346L158.301 24.387L158.414 24.4288C159.809 24.9845 161.275 25.256 162.791 25.256C166.944 25.256 169.624 23.2771 169.624 20.2146C169.624 17.6619 167.927 16.3653 164.984 14.9922C162.83 13.9797 161.926 13.3906 161.926 12.3169C161.926 11.3003 162.931 10.6374 164.486 10.6374C165.889 10.6374 167.26 10.9493 168.556 11.5677L168.801 11.6805L168.949 8.79209L168.814 8.7531C167.407 8.3353 166.019 8.12501 164.682 8.12501C161.003 8.11944 158.529 9.92432 158.529 12.6094Z" fill="#191825" fill-opacity="0.37"/>
<path d="M180.219 7.92285C175.116 7.92285 171.948 11.2833 171.948 16.6868C171.948 22.0931 175.119 25.448 180.219 25.448C185.345 25.448 188.527 22.0917 188.527 16.6868C188.527 11.2847 185.342 7.92285 180.219 7.92285ZM180.248 22.678C177.428 22.678 175.534 20.2576 175.534 16.6548C175.534 13.0325 177.428 10.6037 180.248 10.6037C183.114 10.6037 184.965 12.981 184.965 16.6548C184.965 20.3147 183.117 22.678 180.248 22.678Z" fill="#191825" fill-opacity="0.37"/>
<path d="M194.791 11.0293C194.791 10.0865 194.791 8.31646 194.791 8.31646H191.686V25.0603H195.081V16.6557C195.081 13.1322 196.553 11.1909 199.239 11.1909C199.625 11.1909 200 11.2494 200.451 11.3789L200.681 11.4416L200.787 8.1368L199.331 8.02539C197.372 8.024 195.786 9.08659 194.791 11.0293Z" fill="#191825" fill-opacity="0.37"/>
<path d="M208.886 7.57498C209.443 8.13901 209.736 8.88826 209.736 9.6946C209.736 10.5372 209.421 11.292 208.842 11.8476C208.237 12.4214 207.488 12.7292 206.705 12.7292C205.888 12.7292 205.136 12.4075 204.551 11.8031C203.992 11.2237 203.676 10.4828 203.676 9.69182C203.676 8.88547 203.998 8.10419 204.6 7.51092C205.164 6.95804 205.889 6.65723 206.705 6.65723C207.542 6.65862 208.304 6.97614 208.886 7.57498ZM204.976 7.90783C204.485 8.39804 204.224 9.02891 204.224 9.6946C204.224 10.3436 204.466 10.941 204.934 11.4173C205.403 11.9075 206.026 12.1721 206.693 12.1721C207.342 12.1721 207.966 11.9228 208.447 11.4549C208.921 10.9995 209.181 10.3756 209.181 9.69321C209.181 9.02613 208.939 8.42032 208.48 7.95657C207.998 7.46636 207.386 7.20872 206.705 7.20872C206.034 7.20872 205.445 7.44825 204.976 7.90783ZM206.761 7.96493C207.711 7.96493 208.198 8.30891 208.198 8.93143C208.198 9.36037 207.943 9.69321 207.491 9.82969L208.237 11.2906H207.226L206.604 9.97174H206.34V11.2906H205.424V7.96353L206.761 7.96493ZM206.333 9.43H206.652C207.06 9.43 207.257 9.28655 207.257 9.00106C207.257 8.67518 207.051 8.54149 206.604 8.54149H206.333V9.43Z" fill="#191825" fill-opacity="0.37"/>
</svg>
