<svg width="187" height="32" viewBox="0 0 187 32" fill="none" xmlns="http://www.w3.org/2000/svg">
<mask id="mask0_839_1775" style="mask-type:luminance" maskUnits="userSpaceOnUse" x="0" y="0" width="187" height="32">
<path d="M186.726 0.320312H0.72998V31.8778H186.726V0.320312Z" fill="white"/>
</mask>
<g mask="url(#mask0_839_1775)">
<mask id="mask1_839_1775" style="mask-type:luminance" maskUnits="userSpaceOnUse" x="0" y="0" width="187" height="32">
<path d="M186.726 0.321289H0.730469V31.8788H186.726V0.321289Z" fill="white"/>
</mask>
<g mask="url(#mask1_839_1775)">
<path d="M73.6646 3.77619C73.6646 2.21775 74.9287 0.946289 76.4944 0.946289C78.0529 0.946289 79.3243 2.21048 79.3243 3.77619C79.2699 5.33463 77.9548 6.55159 76.3927 6.4971C74.9106 6.44261 73.7227 5.25471 73.6646 3.77619Z" fill="#191825" fill-opacity="0.37"/>
</g>
<mask id="mask2_839_1775" style="mask-type:luminance" maskUnits="userSpaceOnUse" x="0" y="0" width="187" height="32">
<path d="M186.726 0.321289H0.730469V31.8788H186.726V0.321289Z" fill="white"/>
</mask>
<g mask="url(#mask2_839_1775)">
<path d="M118.264 22.6262C118.264 21.0569 119.528 19.7891 121.083 19.7891C122.648 19.7891 123.916 21.0569 123.916 22.6262C123.916 24.1919 122.648 25.4598 121.083 25.4598C119.528 25.4598 118.264 24.1883 118.264 22.6262Z" fill="#191825" fill-opacity="0.37"/>
</g>
<mask id="mask3_839_1775" style="mask-type:luminance" maskUnits="userSpaceOnUse" x="0" y="0" width="187" height="32">
<path d="M186.726 0.321289H0.730469V31.8788H186.726V0.321289Z" fill="white"/>
</mask>
<g mask="url(#mask3_839_1775)">
<path d="M27.2856 21.4018C24.8553 21.4018 23.1588 19.4692 23.1588 16.7047C23.1588 13.9438 24.8516 12.0112 27.2856 12.0112C29.7304 12.0112 31.445 13.9438 31.445 16.7047C31.4414 19.5128 29.7703 21.4018 27.2856 21.4018ZM27.2856 7.88439C22.138 7.88439 18.3999 11.5934 18.3999 16.7047C18.3999 21.8159 22.1416 25.5249 27.2856 25.5249C32.4586 25.5249 36.2075 21.8159 36.2075 16.7083C36.2075 11.5934 32.4513 7.88439 27.2856 7.88439ZM68.1937 17.1478C68.0157 16.8027 67.7869 16.4794 67.5217 16.1961L67.3655 16.0326L67.5289 15.8764C67.7651 15.6257 68.0084 15.3315 68.2373 14.99L72.7819 8.23313H67.2637L63.849 13.5187C63.6564 13.8057 63.2677 13.9401 62.6829 13.9401H61.9018V3.94651C61.9018 1.94851 60.6594 1.67969 59.3117 1.67969H57.0085L57.0122 25.2634H61.8982V18.1941H62.3559C62.9117 18.1941 63.2895 18.2595 63.4675 18.561L66.163 23.6504C66.9186 25.0309 67.667 25.267 69.0765 25.267H72.8327L70.0391 20.6571L68.1937 17.1478ZM91.93 7.84806C89.4416 7.84806 87.854 8.95241 86.9677 9.88965L86.6734 10.1912L86.5681 9.7843C86.3065 8.78167 85.4274 8.23676 84.1014 8.23676H81.9109L81.9254 25.267H86.7824V17.4203C86.7824 16.6502 86.8805 15.989 87.0839 15.3787C87.6252 13.5405 89.1328 12.3926 91.0145 12.3926C92.5294 12.3926 93.1251 13.1918 93.1251 15.2625V22.6805C93.1251 24.4424 93.9389 25.2706 95.708 25.2706H98.0148L98.0039 14.4378C98.0039 10.1185 95.9005 7.84806 91.93 7.84806ZM76.5563 8.23313H74.2531L74.2676 21.4018V25.2634H76.7234L76.8106 25.267L77.9585 25.2634H79.0955V25.2597H79.1064L79.1173 10.8233C79.1101 9.07955 78.2782 8.23313 76.5563 8.23313ZM46.3538 21.4018C43.9235 21.4018 42.227 19.4692 42.227 16.7047C42.227 13.9438 43.9235 12.0112 46.3538 12.0112C48.7949 12.0112 50.5132 13.9438 50.5132 16.7047C50.5096 19.5128 48.8385 21.4018 46.3538 21.4018ZM46.3538 7.88439C41.2025 7.88439 37.4608 11.5934 37.4608 16.7047C37.4608 21.8159 41.2025 25.5249 46.3538 25.5249C51.5159 25.5249 55.2757 21.8159 55.2757 16.7083C55.2757 11.5934 51.5195 7.88439 46.3538 7.88439Z" fill="#191825" fill-opacity="0.37"/>
</g>
</g>
<mask id="mask4_839_1775" style="mask-type:luminance" maskUnits="userSpaceOnUse" x="0" y="0" width="187" height="32">
<path d="M186.726 0.320312H0.72998V31.8778H186.726V0.320312Z" fill="white"/>
</mask>
<g mask="url(#mask4_839_1775)">
<mask id="mask5_839_1775" style="mask-type:luminance" maskUnits="userSpaceOnUse" x="0" y="0" width="187" height="32">
<path d="M186.686 0.942383H0.730469V31.8387H186.686V0.942383Z" fill="white"/>
</mask>
<g mask="url(#mask5_839_1775)">
<mask id="mask6_839_1775" style="mask-type:luminance" maskUnits="userSpaceOnUse" x="0" y="0" width="187" height="32">
<path d="M186.727 0.322266H0.730957V31.8798H186.727V0.322266Z" fill="white"/>
</mask>
<g mask="url(#mask6_839_1775)">
<path d="M150.424 21.4021C147.994 21.4021 146.297 19.4695 146.297 16.705C146.297 13.9442 147.994 12.0115 150.424 12.0115C152.869 12.0115 154.584 13.9442 154.584 16.705C154.584 19.5131 152.909 21.4021 150.424 21.4021ZM150.424 7.88477C145.273 7.88477 141.531 11.5938 141.531 16.705C141.531 21.8163 145.266 25.5253 150.424 25.5253C155.59 25.5253 159.346 21.8163 159.346 16.7087C159.346 11.5938 155.586 7.88477 150.424 7.88477Z" fill="#191825" fill-opacity="0.37"/>
</g>
<mask id="mask7_839_1775" style="mask-type:luminance" maskUnits="userSpaceOnUse" x="0" y="0" width="187" height="32">
<path d="M186.727 0.322266H0.730957V31.8798H186.727V0.322266Z" fill="white"/>
</mask>
<g mask="url(#mask7_839_1775)">
<path d="M108.238 20.6467C105.582 20.6467 104.642 18.3326 104.642 16.1639C104.642 15.2048 104.885 12.0916 107.991 12.0916C109.531 12.0916 111.584 12.5348 111.584 16.3201C111.58 19.8983 109.76 20.6467 108.238 20.6467ZM114.101 8.19003C113.179 8.19003 112.47 8.55694 112.114 9.22899L111.983 9.49055L111.758 9.29075C110.973 8.61143 109.568 7.80859 107.29 7.80859C102.749 7.80859 99.6938 11.2161 99.6938 16.2946C99.6938 21.3659 102.858 24.9078 107.384 24.9078C108.928 24.9078 110.152 24.5446 111.119 23.8108L111.489 23.531V24.0033C111.489 26.281 110.018 27.5343 107.352 27.5343C106.051 27.5343 104.874 27.2183 104.086 26.9313C103.058 26.6189 102.451 26.8804 102.037 27.9085L101.648 28.8603L101.103 30.2516L101.441 30.4296C103.149 31.3378 105.372 31.8754 107.377 31.8754C111.511 31.8754 116.339 29.7612 116.339 23.8035L116.354 8.17913H114.101" fill="#191825" fill-opacity="0.37"/>
</g>
</g>
</g>
<mask id="mask8_839_1775" style="mask-type:luminance" maskUnits="userSpaceOnUse" x="0" y="0" width="187" height="32">
<path d="M186.726 0.320312H0.72998V31.8778H186.726V0.320312Z" fill="white"/>
</mask>
<g mask="url(#mask8_839_1775)">
<mask id="mask9_839_1775" style="mask-type:luminance" maskUnits="userSpaceOnUse" x="0" y="0" width="187" height="32">
<path d="M186.726 0.321289H0.730469V31.8788H186.726V0.321289Z" fill="white"/>
</mask>
<g mask="url(#mask9_839_1775)">
<path d="M9.20563 21.2015L5.24958 21.1979V16.4754C5.24958 15.4618 5.64192 14.9423 6.50288 14.8188H9.19836C11.1201 14.8188 12.3625 16.0322 12.3697 17.9938C12.3697 20.01 11.1564 21.2015 9.20563 21.2015ZM5.24958 8.45793V7.21553C5.24958 6.12571 5.70731 5.60987 6.72084 5.54448H8.74427C10.4771 5.54448 11.516 6.58344 11.516 8.31988C11.516 9.64583 10.804 11.1897 8.80603 11.1897H5.24958V8.45793ZM14.2479 13.1732L13.5358 12.77L14.157 12.236C14.8872 11.6148 16.0969 10.2089 16.0969 7.78587C16.0969 4.07686 13.2234 1.68652 8.77333 1.68652H3.1208C1.80212 1.73375 0.745 2.81267 0.730469 4.13135V25.1721H8.87868C13.8265 25.1721 17.016 22.4803 17.016 18.3099C17.016 16.0721 15.9807 14.1504 14.2479 13.1732Z" fill="#191825" fill-opacity="0.37"/>
</g>
<mask id="mask10_839_1775" style="mask-type:luminance" maskUnits="userSpaceOnUse" x="0" y="0" width="187" height="32">
<path d="M186.726 0.321289H0.730469V31.8788H186.726V0.321289Z" fill="white"/>
</mask>
<g mask="url(#mask10_839_1775)">
<path d="M181.034 7.90304C179.007 7.90668 177.085 8.84029 175.821 10.4314L175.468 10.8746L175.192 10.3769C174.291 8.73494 172.747 7.90668 170.59 7.90668C168.334 7.90668 166.819 9.1636 166.114 9.91558L165.656 10.4133L165.478 9.75574C165.224 8.81123 164.381 8.29175 163.11 8.29175H161.068L161.046 25.2566H165.682V17.7659C165.682 17.1084 165.762 16.4618 165.925 15.7824C166.368 13.9733 167.585 12.0262 169.631 12.2187C170.887 12.3422 171.505 13.3158 171.505 15.1939V25.253H176.173V17.7623C176.173 16.9413 176.249 16.3237 176.435 15.7134C176.805 13.9842 178.08 12.2115 180.053 12.2115C181.481 12.2115 182.011 13.0179 182.011 15.1939V22.7718C182.011 24.4828 182.774 25.253 184.488 25.253H186.668L186.672 14.4238C186.686 10.0936 184.779 7.90304 181.034 7.90304ZM138.847 19.3643C138.832 19.3788 136.838 21.4858 134.211 21.4858C131.817 21.4858 129.402 20.0182 129.402 16.7415C129.402 13.9116 131.276 11.9317 133.961 11.9317C134.833 11.9317 135.821 12.2442 135.977 12.7673L135.999 12.8545C136.202 13.5992 136.881 14.1114 137.648 14.1077L140.187 14.1114V11.8881C140.187 8.95654 136.464 7.89941 133.954 7.89941C128.592 7.89941 124.705 11.6302 124.705 16.7705C124.705 21.9072 128.552 25.638 133.855 25.638C138.458 25.638 140.957 22.612 140.983 22.5865L141.114 22.4231L139.101 19.0846L138.847 19.3643Z" fill="#191825" fill-opacity="0.37"/>
</g>
</g>
</svg>
