<svg width="112" height="32" viewBox="0 0 112 32" fill="none" xmlns="http://www.w3.org/2000/svg">
<path d="M53.935 25.0107H50.4686C50.4467 25.0107 50.4467 25.0107 50.4357 24.9997L47.452 21.3578L44.4683 24.9997C44.4573 25.0107 44.4464 25.0107 44.4354 25.0107H41.6601C41.6382 25.0107 41.6272 24.9997 41.6162 24.9888C41.6162 24.9778 41.6162 24.9558 41.6272 24.9449L46.026 19.5479L41.682 14.2057C41.6711 14.1838 41.6711 14.1728 41.6711 14.1508C41.682 14.1399 41.693 14.1289 41.704 14.1289H45.1703C45.1813 14.1289 45.1923 14.1399 45.2033 14.1508L47.825 17.3978L50.4906 14.1508C50.5015 14.1399 50.5125 14.1289 50.5235 14.1289H53.3427C53.3536 14.1289 53.3756 14.1399 53.3865 14.1508C53.3975 14.1728 53.3865 14.1838 53.3756 14.2057L49.262 19.153L53.9789 24.9449C53.9899 24.9558 53.9899 24.9778 53.9899 24.9888C53.9679 25.0107 53.9569 25.0107 53.935 25.0107Z" fill="#191825" fill-opacity="0.37"/>
<path d="M72.6817 16.0372C71.1459 16.0372 70.1038 16.9696 69.7967 18.5821H75.0182V18.4724C75.0182 17.189 74.0638 16.0372 72.6817 16.0372ZM77.7057 20.2495C77.6947 20.2604 77.6838 20.2714 77.6728 20.2714H69.7418C69.9064 22.1143 71.102 23.1674 73.0437 23.1674C74.2393 23.1674 75.5118 22.7615 77.2998 21.8071C77.3327 21.7852 77.3657 21.8181 77.3657 21.851V24.2863C77.3657 24.3082 77.3547 24.3192 77.3437 24.3192C75.6763 25.0212 73.998 25.5039 72.6817 25.5039C69.2701 25.5039 66.791 23.0138 66.791 19.5913C66.791 16.1688 69.2701 13.6787 72.6817 13.6787C75.797 13.6787 77.7935 15.7739 77.7935 18.6589C77.7935 19.1306 77.7167 20.2166 77.7057 20.2495Z" fill="#191825" fill-opacity="0.37"/>
<path d="M93.8091 11.8699C92.8328 11.8699 92.043 11.091 92.043 10.1367C92.043 9.14941 92.8328 8.34863 93.8091 8.34863C94.7854 8.34863 95.5752 9.14941 95.5752 10.1367C95.5752 11.091 94.7854 11.8699 93.8091 11.8699ZM92.383 25.0114C92.3501 25.0114 92.3391 25.0004 92.3391 24.9675V14.1625C92.3391 14.1406 92.3501 14.1186 92.3721 14.1186H95.2351C95.257 14.1186 95.268 14.1406 95.268 14.1625V24.9675C95.268 25.0004 95.2461 25.0114 95.2241 25.0114H92.383Z" fill="#191825" fill-opacity="0.37"/>
<path d="M59.1783 23.3868C58.6627 23.3868 58.1362 23.31 57.5219 23.1564L57.5328 16.2236C58.2459 15.9933 58.8601 15.8946 59.4744 15.8946C61.4599 15.8946 62.7872 17.3535 62.7872 19.5364C62.7872 21.873 61.3722 23.3868 59.1783 23.3868ZM59.9571 13.6787C59.1454 13.6787 58.3336 13.8213 57.478 14.1175H54.6259C54.604 14.1175 54.582 14.1394 54.582 14.1614V31.8772C55.4377 31.7565 56.4907 31.4494 57.5219 30.7254V25.3393C58.2239 25.4381 58.8053 25.5039 59.3647 25.5039C63.2699 25.5039 65.7929 23.1674 65.7929 19.5474C65.7929 16.092 63.3906 13.6787 59.9571 13.6787Z" fill="#191825" fill-opacity="0.37"/>
<path d="M87.1724 22.4879C86.2839 22.9596 85.4831 23.179 84.7372 23.179C82.9711 23.179 81.907 21.9284 81.907 19.8333C81.907 17.42 83.2563 15.8513 85.3515 15.8513C85.9328 15.8513 86.4923 15.9939 87.1724 16.3011V22.4879ZM87.1724 8.40301V14.0523C86.3387 13.811 85.6038 13.7013 84.8578 13.7013C81.4573 13.7013 78.9014 16.2572 78.9014 19.6578C78.9014 23.0364 81.1611 25.4935 84.2764 25.4935C85.3515 25.4935 86.3607 25.2193 87.5454 24.616V25.5923C88.3242 25.4387 89.2237 25.1316 90.1122 24.4953V7.24023C89.2456 7.3609 88.2145 7.65708 87.1724 8.40301Z" fill="#191825" fill-opacity="0.37"/>
<path d="M105.196 22.4658C104.329 22.9595 103.594 23.2008 102.936 23.2008C101.038 23.2008 99.9085 21.9503 99.9085 19.8551C99.9085 17.4747 101.247 15.8731 103.232 15.8731C103.759 15.8731 104.406 16.0816 105.196 16.4984V22.4658ZM108.136 13.9864C108.136 13.9206 108.081 13.8657 108.015 13.8657H105.7C105.635 13.8657 105.569 13.9206 105.569 13.9864V14.3813H105.514C104.45 13.9096 103.528 13.7012 102.64 13.7012C99.4368 13.7012 96.9248 16.3558 96.9248 19.7564C96.9248 23.1898 99.1736 25.4934 102.519 25.4934C103.408 25.4934 104.56 25.4276 105.635 24.199V25.5922C106.392 25.4276 107.291 25.1095 108.136 24.4952V13.9864Z" fill="#191825" fill-opacity="0.37"/>
<path d="M33.74 22.3119H40.925C40.8153 23.1127 40.5411 24.056 39.9268 25.0104H32.4565C31.5461 25.0104 30.7892 24.2974 30.7014 23.4088C30.7014 23.3979 30.6904 23.3869 30.6904 23.365V9.19231C30.6904 9.18134 30.7014 9.17037 30.7014 9.1594C30.7892 8.25989 31.5461 7.54688 32.4565 7.54688H40.914C40.8043 8.34765 40.5301 9.31297 39.9048 10.2673H33.74V14.1286H39.85C39.8719 14.1286 39.8939 14.1505 39.8939 14.1725V16.849C39.8939 16.871 39.8719 16.8929 39.85 16.8929H33.74V22.3119Z" fill="#191825" fill-opacity="0.37"/>
<path d="M24.7452 25.2424C24.0319 25.2424 23.593 24.6828 23.593 24.0025C23.593 23.2783 24.0978 22.7625 24.7452 22.7625C25.3816 22.7625 25.8864 23.2673 25.8864 24.0025C25.8864 24.7377 25.3816 25.2424 24.7452 25.2424ZM24.7452 22.6309C24.021 22.6309 23.3955 23.1795 23.3955 24.0025C23.3955 24.7815 23.9551 25.3741 24.7452 25.3741C25.4584 25.3741 26.0839 24.8254 26.0839 24.0025C26.0839 23.1795 25.4694 22.6309 24.7452 22.6309Z" fill="#191825" fill-opacity="0.37"/>
<path d="M24.4267 23.8919V23.3872H24.7669C24.9424 23.3872 25.1399 23.4091 25.1399 23.6176C25.1399 23.87 24.9534 23.881 24.7449 23.881C24.7339 23.8919 24.4267 23.8919 24.4267 23.8919ZM25.3813 23.6505C25.3813 23.3214 25.1838 23.1787 24.7888 23.1787H24.1743V24.8027H24.4377V24.1114H24.69L25.107 24.8027H25.4143L24.9644 24.0895C25.2058 24.0675 25.3813 23.9468 25.3813 23.6505Z" fill="#191825" fill-opacity="0.37"/>
<path d="M110.505 15.918C109.792 15.918 109.353 15.3583 109.353 14.678C109.353 13.9538 109.858 13.4381 110.505 13.4381C111.141 13.4381 111.646 13.9428 111.646 14.678C111.646 15.4132 111.141 15.918 110.505 15.918ZM110.505 13.3174C109.781 13.3174 109.155 13.866 109.155 14.689C109.155 15.4681 109.715 16.0606 110.505 16.0606C111.218 16.0606 111.844 15.512 111.844 14.689C111.844 13.8551 111.218 13.3174 110.505 13.3174Z" fill="#191825" fill-opacity="0.37"/>
<path d="M110.175 14.5685V14.0747H110.516C110.691 14.0747 110.889 14.0966 110.889 14.3051C110.889 14.5575 110.702 14.5685 110.494 14.5685H110.175ZM111.141 14.338C111.141 14.0089 110.944 13.8662 110.549 13.8662H109.934V15.4902H110.197V14.7989H110.45L110.867 15.4902H111.174L110.724 14.777C110.955 14.755 111.141 14.6343 111.141 14.338Z" fill="#191825" fill-opacity="0.37"/>
<path d="M15.4755 10.2569L14.96 8.78693L10.5283 2.87435L11.3181 2.6769L18.9419 9.26959L23.4284 7.98616C23.955 7.85452 24.5583 7.82161 25.0081 7.82161C23.604 4.78305 21.0152 2.282 17.6146 1.07535C10.8903 -1.32698 3.48583 2.19424 1.09447 8.92954C0.348539 11.0138 0.183996 13.1638 0.491143 15.2041L11.2303 11.4745L15.4755 10.2569Z" fill="#191825" fill-opacity="0.37"/>
<path d="M25.491 8.98438C25.0961 9.23667 24.5147 9.57673 23.9443 9.76321L19.4467 11.0466L16.4521 20.6779L15.6732 20.9302L16.3095 13.5806L15.9584 12.0558L11.7461 13.2625L0.601074 15.8623C1.48961 20.1404 4.5172 23.881 8.93793 25.4497C15.6732 27.852 23.0667 24.3308 25.469 17.5955C26.5002 14.7105 26.4343 11.6829 25.491 8.98438Z" fill="#191825" fill-opacity="0.37"/>
<path d="M15.9475 12.045L16.2985 13.5697L15.6623 20.9193L16.4411 20.667L19.4358 11.0358L23.9333 9.75234C24.5038 9.56586 25.0851 9.23677 25.48 8.9735C25.3374 8.5786 25.1839 8.19466 25.0084 7.81073C24.5476 7.81073 23.9553 7.83267 23.4287 7.97527L18.9422 9.25871L11.3184 2.66602L10.5286 2.86347L14.9493 8.77605L15.4649 10.246L11.2196 11.4636L0.480469 15.1932C0.513377 15.4126 0.557256 15.643 0.601134 15.8624L11.7352 13.2407L15.9475 12.045Z" fill="white"/>
</svg>
