<svg width="25" height="25" viewBox="0 0 25 25" fill="none" xmlns="http://www.w3.org/2000/svg">
<path d="M12.7197 2.62598C7.27596 2.62598 2.85791 7.04403 2.85791 12.4877C2.85791 17.9314 7.27596 22.3494 12.7197 22.3494C18.1634 22.3494 22.5814 17.9314 22.5814 12.4877C22.5814 7.04403 18.1732 2.62598 12.7197 2.62598ZM15.6782 14.6869L12.8182 16.3338C12.4632 16.5409 12.0688 16.6395 11.6841 16.6395C11.2897 16.6395 10.905 16.5409 10.5501 16.3338C9.84001 15.9196 9.41596 15.1898 9.41596 14.3614V11.0577C9.41596 10.2392 9.84001 9.4996 10.5501 9.08541C11.2601 8.67121 12.1082 8.67121 12.8281 9.08541L15.688 10.7323C16.398 11.1465 16.8221 11.8763 16.8221 12.7047C16.8221 13.533 16.398 14.2727 15.6782 14.6869Z" fill="#5D50C6"/>
</svg>
