<svg width="21" height="21" viewBox="0 0 21 21" fill="none" xmlns="http://www.w3.org/2000/svg">
<path fill-rule="evenodd" clip-rule="evenodd" d="M9.35796 2.22454C8.69683 2.22454 8.13445 2.68392 7.97658 3.30309H13.2848C13.127 2.68392 12.5646 2.22454 11.9035 2.22454H9.35796ZM14.7846 3.30308H16.7382C18.8101 3.30308 20.4974 5.01077 20.4974 7.10794C20.4974 7.10794 20.4382 7.99574 20.4185 9.2321C20.4165 9.32993 20.3691 9.42579 20.2912 9.48377C19.8166 9.83426 19.3824 10.1239 19.343 10.1438C17.7051 11.2423 15.8018 12.0153 13.7742 12.3998C13.642 12.4257 13.5118 12.3569 13.4447 12.239C12.8763 11.2543 11.8147 10.6132 10.6307 10.6132C9.45461 10.6132 8.38309 11.2473 7.798 12.233C7.72992 12.3489 7.60165 12.4158 7.47043 12.3908C5.4596 12.0053 3.55632 11.2333 1.92833 10.1538L0.98113 9.49472C0.902197 9.44482 0.852859 9.35488 0.852859 9.25508C0.823264 8.74572 0.773926 7.10794 0.773926 7.10794C0.773926 5.01077 2.46113 3.30308 4.53313 3.30308H6.47685C6.66432 1.85504 7.87792 0.726562 9.35796 0.726562H11.9035C13.3835 0.726562 14.5971 1.85504 14.7846 3.30308ZM20.1619 11.3922L20.1224 11.4122C18.1294 12.7504 15.7318 13.6392 13.2158 14.0087C12.8606 14.0586 12.5053 13.8289 12.4067 13.4695C12.1897 12.6506 11.4891 12.1112 10.6504 12.1112H10.6406H10.6209C9.78222 12.1112 9.08164 12.6506 8.86458 13.4695C8.76596 13.8289 8.41072 14.0586 8.05552 14.0087C5.53952 13.6392 3.14192 12.7504 1.14886 11.4122C1.139 11.4023 1.04033 11.3423 0.961397 11.3922C0.872592 11.4422 0.872592 11.562 0.872592 11.562L0.941664 16.6551C0.941664 18.7523 2.619 20.45 4.69099 20.45H16.5704C18.6425 20.45 20.3198 18.7523 20.3198 16.6551L20.3988 11.562C20.3988 11.562 20.3988 11.4422 20.3099 11.3922C20.2606 11.3623 20.2014 11.3723 20.1619 11.3922ZM11.3707 15.5766C11.3707 15.9961 11.0451 16.3255 10.6307 16.3255C10.2262 16.3255 9.89069 15.9961 9.89069 15.5766V14.2883C9.89069 13.8788 10.2262 13.5393 10.6307 13.5393C11.0451 13.5393 11.3707 13.8788 11.3707 14.2883V15.5766Z" fill="#F85E9F"/>
</svg>
