<svg width="48" height="41" viewBox="0 0 48 41" fill="none" xmlns="http://www.w3.org/2000/svg">
<path d="M12.502 0.475586C9.24767 0.475586 6.34832 1.8365 4.15902 3.96664C2.02889 6.09677 0.667969 8.99611 0.667969 12.3097C0.667969 15.564 2.02889 18.4634 4.15902 20.6527L24.3361 40.8298L44.5132 20.6527C46.6433 18.5225 48.0042 15.6232 48.0042 12.3097C48.0042 9.05528 46.6433 6.15594 44.5132 3.96664C42.3831 1.8365 39.4837 0.475586 36.1702 0.475586C32.9158 0.475586 30.0165 1.8365 27.8272 3.96664C25.697 6.09677 24.3361 8.99611 24.3361 12.3097C24.3361 9.05528 22.9752 6.15594 20.8451 3.96664C18.7149 1.8365 15.8156 0.475586 12.502 0.475586Z" fill="url(#paint0_linear_839_2007)"/>
<defs>
<linearGradient id="paint0_linear_839_2007" x1="24.3361" y1="0.475586" x2="24.3361" y2="40.8298" gradientUnits="userSpaceOnUse">
<stop stop-color="#8954BC"/>
<stop offset="1" stop-color="#F85E9F"/>
</linearGradient>
</defs>
</svg>
