<svg width="1269" height="357" viewBox="0 0 1269 357" fill="none" xmlns="http://www.w3.org/2000/svg">
<rect x="0.728027" y="2.99219" width="1268.22" height="353.05" rx="29.5852" fill="#FACD49"/>
<path d="M1048.13 249.77C1048.13 243.478 1042.95 238.376 1036.57 238.376C1030.19 238.376 1025.02 243.478 1025.02 249.77C1025.02 249.77 1024.5 253.728 1029.07 260.157C1031.12 263.052 1036.57 271.643 1036.57 271.643C1036.57 271.643 1042.02 263.052 1044.08 260.157C1048.65 253.728 1048.13 249.77 1048.13 249.77ZM1036.57 258.281C1031.92 258.281 1028.15 254.563 1028.15 249.976C1028.15 245.389 1031.92 241.671 1036.57 241.671C1041.22 241.671 1044.99 245.389 1044.99 249.976C1044.99 254.563 1041.22 258.281 1036.57 258.281Z" fill="white"/>
<path d="M1063.31 31.9411C1060.77 30.5177 1058.19 29.0943 1055.58 27.6973C1054.86 27.3019 1054.63 26.5112 1055.12 25.9313C1055.61 25.3514 1056.59 25.1669 1057.31 25.5623C1059.95 26.9593 1062.56 28.3826 1065.1 29.8324C1065.82 30.2278 1066.02 31.0449 1065.49 31.6248C1065.2 31.9938 1064.68 32.1783 1064.19 32.1783C1063.86 32.1783 1063.57 32.0992 1063.28 31.9411H1063.31ZM1049.41 21.424C1046.77 20.0797 1044.1 18.7354 1041.39 17.4174C1040.64 17.0484 1039.66 17.2329 1039.21 17.8655C1038.75 18.4718 1039.01 19.2625 1039.76 19.6316C1042.43 20.9495 1045.11 22.2674 1047.72 23.6117C1047.98 23.7435 1048.27 23.8226 1048.57 23.8226C1049.09 23.8226 1049.61 23.6117 1049.9 23.2163C1050.36 22.6101 1050.16 21.8193 1049.41 21.4503V21.424ZM1108.32 60.4876C1108.74 60.4876 1109.17 60.3558 1109.49 60.0658C1110.08 59.5387 1110.05 58.7215 1109.4 58.2471C1107.08 56.5601 1104.73 54.8732 1102.35 53.1862C1101.7 52.7117 1100.69 52.7908 1100.1 53.318C1099.51 53.8452 1099.61 54.6623 1100.26 55.1367C1102.64 56.7974 1104.96 58.4843 1107.24 60.1713C1107.54 60.4085 1107.93 60.5139 1108.32 60.5139V60.4876ZM1096.15 292.761C1093.58 291.443 1090.97 290.072 1088.33 288.649C1087.61 288.253 1086.63 288.411 1086.11 288.991C1085.62 289.571 1085.81 290.362 1086.53 290.784C1089.21 292.233 1091.85 293.63 1094.42 294.948C1094.69 295.08 1094.98 295.133 1095.27 295.133C1095.79 295.133 1096.32 294.922 1096.61 294.527C1097.07 293.92 1096.84 293.13 1096.12 292.761H1096.15ZM1033.27 13.5954C1030.56 12.3302 1027.82 11.0913 1025.05 9.87883C1024.27 9.53617 1023.32 9.7734 1022.9 10.3796C1022.47 11.0123 1022.77 11.7767 1023.52 12.1193C1026.26 13.3318 1029 14.5707 1031.67 15.8095C1031.93 15.915 1032.19 15.9677 1032.45 15.9677C1033.01 15.9677 1033.53 15.7305 1033.82 15.3351C1034.25 14.7288 1033.99 13.9381 1033.24 13.5954H1033.27ZM1094.13 50.5503C1094.59 50.5503 1095.04 50.3922 1095.34 50.0759C1095.89 49.5223 1095.79 48.7316 1095.14 48.2835C1092.73 46.6756 1090.32 45.0677 1087.84 43.4862C1087.15 43.0645 1086.14 43.1435 1085.62 43.6971C1085.06 44.2506 1085.19 45.0677 1085.88 45.4895C1088.33 47.071 1090.74 48.6525 1093.15 50.2604C1093.45 50.4713 1093.81 50.5503 1094.16 50.5503H1094.13ZM1073.16 279.818C1072.47 279.397 1071.46 279.502 1070.94 280.056C1070.42 280.609 1070.55 281.426 1071.23 281.848C1073.78 283.43 1076.32 284.932 1078.8 286.382C1079.1 286.54 1079.42 286.619 1079.72 286.619C1080.2 286.619 1080.69 286.434 1080.99 286.092C1081.51 285.512 1081.35 284.721 1080.63 284.299C1078.15 282.85 1075.64 281.347 1073.13 279.792L1073.16 279.818ZM1078.44 40.8503C1078.74 41.0348 1079.06 41.1139 1079.39 41.1139C1079.88 41.1139 1080.33 40.9294 1080.66 40.6131C1081.18 40.0596 1081.05 39.2424 1080.37 38.8207C1077.89 37.2919 1075.34 35.7894 1072.8 34.287C1072.12 33.8653 1071.1 33.9971 1070.58 34.577C1070.06 35.1568 1070.22 35.9476 1070.94 36.3693C1073.49 37.8454 1076 39.3479 1078.44 40.8767V40.8503ZM1058.55 270.356C1057.86 269.908 1056.88 269.96 1056.3 270.514C1055.74 271.067 1055.81 271.858 1056.49 272.333C1058.94 273.993 1061.38 275.601 1063.77 277.156C1064.06 277.341 1064.42 277.446 1064.74 277.446C1065.2 277.446 1065.66 277.288 1065.98 276.972C1066.54 276.418 1066.41 275.601 1065.72 275.179C1063.34 273.624 1060.93 272.043 1058.48 270.382L1058.55 270.356ZM1219.34 205.645C1220.09 208.123 1220.78 210.574 1221.4 212.999C1221.56 213.605 1222.21 214.027 1222.96 214.027C1223.06 214.027 1223.19 214.027 1223.29 214.027C1224.14 213.895 1224.69 213.21 1224.53 212.525C1223.91 210.073 1223.23 207.569 1222.48 205.065C1222.28 204.38 1221.43 203.958 1220.55 204.116C1219.7 204.274 1219.18 204.986 1219.38 205.671L1219.34 205.645ZM1223.1 220.432C1223.62 222.936 1224.04 225.44 1224.43 227.892C1224.53 228.551 1225.22 229.025 1226 229.025C1226.06 229.025 1226.13 229.025 1226.19 229.025C1227.07 228.946 1227.69 228.314 1227.56 227.602C1227.21 225.098 1226.75 222.594 1226.23 220.037C1226.1 219.352 1225.25 218.851 1224.4 218.983C1223.52 219.088 1222.96 219.747 1223.1 220.459V220.432ZM1016.7 6.26769C1013.93 5.1079 1011.12 3.94812 1008.29 2.81469C1007.5 2.49839 1006.56 2.76198 1006.17 3.39459C1005.77 4.02719 1006.1 4.7916 1006.88 5.1079C1009.69 6.24133 1012.49 7.37475 1015.23 8.53453C1015.46 8.63997 1015.72 8.66633 1015.95 8.66633C1016.51 8.66633 1017.06 8.40274 1017.35 7.981C1017.74 7.34839 1017.45 6.58399 1016.67 6.24133L1016.7 6.26769ZM1214.32 191.095C1215.27 193.52 1216.15 195.945 1217 198.344C1217.19 198.897 1217.84 199.266 1218.53 199.266C1218.66 199.266 1218.82 199.266 1218.95 199.213C1219.8 199.029 1220.29 198.317 1220.06 197.632C1219.21 195.207 1218.33 192.782 1217.36 190.331C1217.09 189.645 1216.21 189.276 1215.37 189.487C1214.52 189.698 1214.06 190.41 1214.32 191.095ZM1225.35 235.378C1225.57 237.908 1225.74 240.439 1225.84 242.89C1225.84 243.575 1226.55 244.129 1227.43 244.129H1227.47C1228.35 244.129 1229.03 243.522 1229 242.811C1228.9 240.307 1228.74 237.75 1228.51 235.167C1228.44 234.455 1227.66 233.928 1226.81 233.981C1225.93 234.033 1225.28 234.64 1225.35 235.351V235.378ZM1211.35 183.952C1211.58 184.479 1212.2 184.822 1212.85 184.822C1213.02 184.822 1213.21 184.822 1213.38 184.743C1214.19 184.505 1214.65 183.767 1214.35 183.108C1213.34 180.736 1212.23 178.337 1211.09 175.939C1210.77 175.28 1209.85 174.937 1209.04 175.201C1208.22 175.464 1207.8 176.202 1208.12 176.861C1209.27 179.234 1210.31 181.606 1211.35 183.952ZM1178.97 129.6C1179.26 129.995 1179.78 130.206 1180.3 130.206C1180.6 130.206 1180.89 130.154 1181.15 130.022C1181.9 129.653 1182.13 128.862 1181.67 128.256C1180.04 126.121 1178.35 123.959 1176.62 121.824C1176.13 121.218 1175.15 121.06 1174.43 121.455C1173.68 121.851 1173.49 122.641 1173.98 123.221C1175.7 125.356 1177.37 127.465 1179 129.6H1178.97ZM1197 156.091C1197.26 156.539 1197.85 156.802 1198.44 156.802C1198.67 156.802 1198.89 156.75 1199.12 156.671C1199.91 156.354 1200.23 155.59 1199.87 154.957C1198.5 152.69 1197.1 150.424 1195.67 148.13C1195.27 147.498 1194.3 147.26 1193.51 147.577C1192.73 147.893 1192.44 148.684 1192.83 149.316C1194.26 151.583 1195.67 153.824 1197 156.064V156.091ZM1165.2 312.767C1162.23 312.767 1159.17 312.582 1156.04 312.266C1155.19 312.187 1154.37 312.688 1154.28 313.373C1154.18 314.085 1154.8 314.717 1155.65 314.796C1158.91 315.113 1162.1 315.297 1165.2 315.297C1166.08 315.297 1166.8 314.717 1166.8 314.032C1166.8 313.32 1166.12 312.74 1165.23 312.74L1165.2 312.767ZM1112.33 300.299C1109.66 299.166 1106.92 297.953 1104.18 296.662C1103.43 296.319 1102.45 296.53 1102.02 297.136C1101.6 297.742 1101.86 298.533 1102.61 298.876C1105.42 300.194 1108.19 301.406 1110.9 302.566C1111.12 302.671 1111.39 302.698 1111.61 302.698C1112.17 302.698 1112.72 302.434 1113.02 302.012C1113.41 301.38 1113.11 300.615 1112.33 300.273V300.299ZM1199.32 304.016C1196.9 305.518 1194.36 306.836 1191.65 307.97C1190.87 308.286 1190.58 309.077 1190.97 309.709C1191.26 310.157 1191.82 310.395 1192.37 310.395C1192.63 310.395 1192.86 310.342 1193.09 310.263C1195.93 309.077 1198.7 307.653 1201.24 306.072C1201.93 305.65 1202.06 304.833 1201.54 304.279C1200.98 303.726 1200 303.62 1199.32 304.042V304.016ZM1206.75 170.562C1207.57 170.298 1207.96 169.534 1207.6 168.875C1206.4 166.555 1205.16 164.209 1203.85 161.89C1203.49 161.257 1202.55 160.967 1201.76 161.257C1200.95 161.547 1200.62 162.311 1200.98 162.944C1202.29 165.263 1203.53 167.557 1204.7 169.876C1204.96 170.377 1205.55 170.667 1206.17 170.667C1206.36 170.667 1206.59 170.641 1206.79 170.562H1206.75ZM1191.2 141.435C1189.7 139.221 1188.13 137.007 1186.53 134.793C1186.11 134.187 1185.13 133.976 1184.38 134.345C1183.63 134.714 1183.37 135.478 1183.83 136.084C1185.42 138.272 1186.96 140.46 1188.42 142.674C1188.72 143.096 1189.24 143.333 1189.83 143.333C1190.09 143.333 1190.35 143.28 1190.58 143.175C1191.36 142.832 1191.62 142.041 1191.2 141.435ZM1221.69 279.08C1220.84 278.843 1219.96 279.186 1219.67 279.871C1218.63 282.27 1217.45 284.563 1216.15 286.751C1215.76 287.383 1216.08 288.148 1216.9 288.464C1217.13 288.543 1217.35 288.596 1217.58 288.596C1218.17 288.596 1218.72 288.332 1219.02 287.884C1220.39 285.617 1221.6 283.219 1222.67 280.741C1222.97 280.082 1222.54 279.344 1221.69 279.107V279.08ZM1227.5 249.19C1226.55 249.163 1225.9 249.717 1225.87 250.428C1225.77 252.985 1225.61 255.489 1225.31 257.914C1225.25 258.626 1225.87 259.232 1226.75 259.311C1226.78 259.311 1226.85 259.311 1226.88 259.311C1227.69 259.311 1228.38 258.811 1228.44 258.152C1228.74 255.674 1228.9 253.091 1229 250.508C1229 249.796 1228.35 249.216 1227.47 249.19H1227.5ZM1183.27 310.711C1180.43 311.423 1177.43 311.95 1174.37 312.292C1173.49 312.398 1172.9 313.03 1173 313.742C1173.09 314.375 1173.78 314.849 1174.56 314.849C1174.63 314.849 1174.69 314.849 1174.79 314.849C1178.02 314.48 1181.22 313.927 1184.22 313.189C1185.07 312.978 1185.52 312.266 1185.26 311.581C1185 310.895 1184.12 310.526 1183.27 310.737V310.711ZM1226 264.293C1225.15 264.188 1224.3 264.662 1224.17 265.348C1223.68 267.852 1223.03 270.329 1222.31 272.675C1222.08 273.361 1222.61 274.046 1223.45 274.23C1223.58 274.23 1223.72 274.257 1223.85 274.257C1224.56 274.257 1225.22 273.861 1225.38 273.281C1226.13 270.856 1226.75 268.326 1227.27 265.743C1227.4 265.031 1226.81 264.372 1225.97 264.267L1226 264.293ZM1213.83 292.787C1213.11 292.392 1212.1 292.55 1211.65 293.156C1209.95 295.238 1208.06 297.215 1206.07 298.981C1205.48 299.508 1205.52 300.326 1206.17 300.8C1206.46 301.011 1206.85 301.143 1207.24 301.143C1207.67 301.143 1208.09 301.011 1208.42 300.721C1210.54 298.849 1212.53 296.767 1214.32 294.579C1214.81 293.999 1214.62 293.182 1213.87 292.813L1213.83 292.787ZM1136.17 79.7294C1134.05 77.858 1131.9 76.0128 1129.72 74.1677C1129.1 73.6669 1128.12 73.6406 1127.47 74.1414C1126.85 74.6422 1126.81 75.433 1127.43 75.9601C1129.62 77.7789 1131.74 79.624 1133.83 81.4691C1134.15 81.7327 1134.58 81.8908 1135 81.8908C1135.39 81.8908 1135.78 81.7854 1136.08 81.5482C1136.73 81.0737 1136.76 80.2566 1136.17 79.7294ZM1129.29 306.493C1126.49 305.597 1123.62 304.622 1120.75 303.568C1119.96 303.278 1119.02 303.568 1118.63 304.2C1118.27 304.833 1118.63 305.597 1119.41 305.887C1122.34 306.968 1125.28 307.97 1128.15 308.892C1128.35 308.945 1128.54 308.971 1128.74 308.971C1129.36 308.971 1129.98 308.655 1130.2 308.154C1130.53 307.495 1130.11 306.757 1129.29 306.493ZM1121.99 70.9256C1122.38 70.9256 1122.8 70.7938 1123.09 70.5566C1123.71 70.0558 1123.71 69.2387 1123.09 68.7378C1120.88 66.9455 1118.63 65.1794 1116.34 63.4134C1115.72 62.9126 1114.71 62.9389 1114.09 63.4661C1113.47 63.9669 1113.51 64.784 1114.16 65.2849C1116.44 67.0245 1118.66 68.7906 1120.88 70.5566C1121.17 70.7938 1121.59 70.9256 1121.99 70.9256ZM1165.98 109.225C1165.46 108.645 1164.48 108.513 1163.77 108.935C1163.05 109.357 1162.89 110.147 1163.41 110.727C1165.23 112.783 1167.06 114.839 1168.79 116.895C1169.08 117.264 1169.6 117.449 1170.09 117.449C1170.42 117.449 1170.71 117.37 1171.01 117.212C1171.73 116.816 1171.92 115.999 1171.4 115.419C1169.64 113.337 1167.81 111.254 1165.95 109.198L1165.98 109.225ZM1159.1 105.166C1159.43 105.166 1159.79 105.087 1160.05 104.902C1160.73 104.48 1160.9 103.663 1160.34 103.11C1158.45 101.106 1156.53 99.1031 1154.54 97.0998C1153.98 96.5463 1153 96.4672 1152.32 96.8889C1151.63 97.337 1151.54 98.1278 1152.06 98.6813C1154.01 100.658 1155.94 102.662 1157.8 104.638C1158.12 104.981 1158.58 105.139 1159.07 105.139L1159.1 105.166ZM1147 310.948C1144.1 310.421 1141.1 309.762 1138.07 308.998C1137.22 308.787 1136.34 309.156 1136.08 309.841C1135.81 310.526 1136.27 311.238 1137.12 311.449C1140.22 312.24 1143.32 312.899 1146.32 313.452C1146.45 313.452 1146.55 313.479 1146.68 313.479C1147.39 313.479 1148.05 313.083 1148.21 312.477C1148.4 311.792 1147.85 311.106 1147 310.948ZM1142.47 85.3966C1141.88 84.8694 1140.87 84.8167 1140.22 85.2911C1139.57 85.7656 1139.5 86.5563 1140.09 87.1099C1142.14 89.0077 1144.2 90.9319 1146.19 92.8561C1146.51 93.1724 1146.94 93.3042 1147.39 93.3042C1147.75 93.3042 1148.11 93.1987 1148.4 93.0142C1149.09 92.5661 1149.15 91.749 1148.6 91.1955C1146.61 89.2449 1144.56 87.3207 1142.47 85.3966Z" fill="white"/>
<path d="M67.8891 268.742C67.6807 269.186 67.2116 269.432 66.7425 269.432C66.5601 269.432 66.3777 269.408 66.2213 269.334C63.902 268.322 61.6347 267.261 59.4196 266.151C58.7942 265.83 58.5596 265.115 58.8984 264.523C59.2372 263.931 59.9929 263.709 60.6184 264.029C62.7553 265.115 64.9965 266.176 67.2637 267.163C67.8891 267.434 68.1758 268.149 67.8891 268.742ZM63.4589 82.2233C63.902 81.7052 63.7977 80.9404 63.2505 80.5456C62.7032 80.1262 61.8953 80.2249 61.4784 80.743C59.8887 82.618 58.3512 84.4931 56.8657 86.3682C56.4488 86.8863 56.553 87.6511 57.1003 88.0458C57.3348 88.2185 57.5954 88.2926 57.856 88.2926C58.2469 88.2926 58.6118 88.1199 58.8724 87.8238C60.3578 85.9734 61.8953 84.0984 63.4589 82.248V82.2233ZM54.2076 260.501C52.0967 259.243 50.038 257.911 48.0835 256.554C47.5102 256.159 46.7284 256.282 46.3114 256.8C45.8944 257.343 46.0247 258.083 46.572 258.478C48.5786 259.884 50.6895 261.241 52.8525 262.524C53.061 262.648 53.2955 262.697 53.53 262.697C53.947 262.697 54.364 262.5 54.5985 262.13C54.9633 261.562 54.807 260.822 54.2076 260.477V260.501ZM45.5296 103.466C44.9563 103.096 44.1484 103.268 43.7836 103.811C42.3763 105.834 41.0212 107.833 39.7182 109.831C39.3534 110.398 39.5358 111.139 40.1352 111.484C40.3436 111.607 40.5782 111.657 40.8127 111.657C41.2297 111.657 41.6467 111.459 41.8812 111.089C43.1842 109.115 44.5133 107.117 45.8944 105.119C46.2853 104.576 46.129 103.811 45.5296 103.466ZM36.9558 247.376C36.4607 246.907 35.6528 246.882 35.1577 247.376C34.6625 247.845 34.6365 248.609 35.1577 249.078C36.9037 250.781 38.754 252.434 40.6824 254.013C40.917 254.21 41.2297 254.309 41.5163 254.309C41.8812 254.309 42.22 254.161 42.4806 253.889C42.9497 253.396 42.8715 252.631 42.3503 252.187C40.4739 250.657 38.6758 249.029 36.9819 247.376H36.9558ZM81.0755 59.0812C79.3556 60.8576 77.6877 62.6093 76.0199 64.361C75.5508 64.8544 75.6029 65.6192 76.1241 66.0633C76.3587 66.2607 76.6714 66.3594 76.9581 66.3594C77.2968 66.3594 77.6617 66.2114 77.8962 65.9646C79.538 64.2129 81.2058 62.4613 82.8997 60.7096C83.3688 60.2161 83.3428 59.4513 82.8216 59.0072C82.3004 58.5631 81.4925 58.5878 81.0234 59.0812H81.0755ZM95.4868 275.847C93.0371 275.354 90.6135 274.786 88.2421 274.194C87.5645 273.997 86.8609 274.416 86.6785 275.033C86.496 275.674 86.913 276.34 87.5906 276.488C89.9881 277.105 92.4638 277.648 94.9395 278.166C95.0177 278.166 95.1219 278.191 95.2001 278.191C95.7734 278.191 96.3207 277.796 96.451 277.253C96.6073 276.612 96.1643 275.97 95.4868 275.822V275.847ZM72.8666 69.6161C72.3454 69.1966 71.5376 69.246 71.0685 69.7394C69.4267 71.5651 67.811 73.3908 66.2213 75.1919C65.7783 75.71 65.8565 76.4501 66.3777 76.8942C66.6122 77.0669 66.8989 77.1656 67.1855 77.1656C67.5504 77.1656 67.9152 77.0176 68.1758 76.7215C69.7394 74.9205 71.3551 73.1194 72.9969 71.2937C73.4399 70.8003 73.3878 70.0355 72.8666 69.5914V69.6161ZM103.852 38.7024C103.357 38.2336 102.549 38.2089 102.054 38.6777C100.23 40.3554 98.4576 42.0084 96.6855 43.6614C96.1904 44.1302 96.1904 44.895 96.6855 45.3637C96.9201 45.6105 97.2588 45.7092 97.5716 45.7092C97.8843 45.7092 98.2231 45.5858 98.4576 45.3637C100.204 43.7107 101.976 42.0577 103.8 40.4047C104.295 39.936 104.321 39.1711 103.826 38.7024H103.852ZM81.1277 272.22C78.7301 271.48 76.3847 270.691 74.1175 269.876C73.466 269.63 72.7363 269.951 72.4757 270.567C72.2151 271.184 72.5539 271.875 73.2054 272.122C75.4987 272.96 77.8962 273.775 80.3459 274.515C80.4762 274.564 80.6065 274.564 80.7368 274.564C81.284 274.564 81.7792 274.243 81.9355 273.725C82.144 273.084 81.7792 272.418 81.1277 272.22ZM88.0596 55.5285C89.7535 53.8261 91.4735 52.1238 93.2456 50.4215C93.7407 49.9527 93.7147 49.1879 93.2456 48.7191C92.7505 48.2503 91.9426 48.275 91.4475 48.7191C89.6754 50.4461 87.9293 52.1485 86.2354 53.8508C85.7664 54.3443 85.7664 55.0844 86.2876 55.5532C86.5221 55.7752 86.8348 55.8739 87.1475 55.8739C87.4863 55.8739 87.8251 55.7505 88.0596 55.5038V55.5285ZM12.2769 191.371C12.9806 191.371 13.5278 190.853 13.5539 190.187C13.5539 187.868 13.6842 185.524 13.8666 183.18C13.9187 182.514 13.3975 181.946 12.6939 181.897C12.0163 181.872 11.3909 182.341 11.3388 183.007C11.1303 185.4 11.0261 187.818 11 190.187C11 190.853 11.5473 191.396 12.2509 191.396L12.2769 191.371ZM14.5442 204.151C14.1793 201.881 13.9187 199.537 13.7624 197.194C13.7102 196.527 13.1109 196.034 12.4072 196.083C11.7036 196.133 11.1824 196.7 11.2345 197.366C11.3909 199.759 11.6776 202.177 12.0424 204.521C12.1466 205.113 12.6678 205.557 13.2933 205.557C13.3454 205.557 13.4236 205.557 13.4757 205.557C14.1793 205.459 14.6484 204.842 14.5442 204.2V204.151ZM13.2672 177.209C13.2672 177.209 13.3975 177.209 13.4496 177.209C14.0751 177.209 14.6224 176.765 14.7005 176.173C15.0393 173.903 15.4563 171.56 15.9514 169.241C16.0817 168.599 15.6387 167.958 14.9611 167.834C14.2836 167.711 13.606 168.13 13.4757 168.772C12.9806 171.14 12.5375 173.509 12.1988 175.828C12.0945 176.494 12.5897 177.086 13.2672 177.185V177.209ZM16.0817 163.27C16.0817 163.27 16.2902 163.319 16.3944 163.319C16.9678 163.319 17.4629 162.949 17.6193 162.431C18.2186 160.211 18.9223 157.916 19.678 155.671C19.8865 155.03 19.5216 154.363 18.8441 154.166C18.1665 153.969 17.4629 154.314 17.2544 154.956C16.4987 157.25 15.7951 159.569 15.1696 161.839C14.9872 162.48 15.4042 163.147 16.0817 163.295V163.27ZM49.0477 99.7649C49.4386 99.7649 49.8556 99.5922 50.0901 99.2468C51.4974 97.3471 52.9307 95.4227 54.4161 93.4736C54.833 92.9308 54.7028 92.1907 54.1294 91.7959C53.5561 91.4012 52.7743 91.5246 52.3573 92.0673C50.8459 94.0164 49.4126 95.9408 48.0053 97.8899C47.6144 98.4326 47.7447 99.1728 48.318 99.5675C48.5265 99.7156 48.7871 99.7896 49.0477 99.7896V99.7649ZM27.6524 236.545C27.2615 236.002 26.4797 235.854 25.8803 236.224C25.307 236.594 25.1506 237.334 25.5415 237.902C26.9488 239.876 28.4863 241.825 30.076 243.675C30.3366 243.971 30.7014 244.119 31.0663 244.119C31.3529 244.119 31.6396 244.021 31.8741 243.848C32.4214 243.428 32.4996 242.664 32.0565 242.17C30.4929 240.369 29.0075 238.469 27.6524 236.57V236.545ZM26.0627 136.526C26.2451 136.6 26.4015 136.624 26.5839 136.624C27.0791 136.624 27.5221 136.353 27.7306 135.934C28.7469 133.837 29.8154 131.715 30.936 129.568C31.2487 128.976 30.9881 128.261 30.3626 127.965C29.7372 127.669 28.9815 127.915 28.6687 128.507C27.5221 130.679 26.4276 132.825 25.4112 134.947C25.1246 135.539 25.4112 136.254 26.0367 136.526H26.0627ZM15.9514 211.034C15.7951 210.393 15.1175 209.974 14.4399 210.146C13.7624 210.294 13.3454 210.936 13.5018 211.577C14.0751 213.921 14.7787 216.265 15.5605 218.51C15.7429 219.003 16.2381 219.324 16.7593 219.324C16.8896 219.324 17.0199 219.324 17.1502 219.275C17.8017 219.077 18.1665 218.387 17.958 217.77C17.2023 215.574 16.5247 213.304 15.9514 211.034ZM24.0822 140.843C23.4307 140.597 22.701 140.893 22.4404 141.485C21.4762 143.73 20.564 145.95 19.7041 148.146C19.4695 148.763 19.8083 149.454 20.4598 149.676C20.5901 149.725 20.7465 149.75 20.9028 149.75C21.424 149.75 21.9192 149.454 22.1016 148.96C22.9355 146.789 23.8216 144.593 24.7858 142.373C25.0464 141.756 24.7337 141.065 24.1082 140.819L24.0822 140.843ZM20.564 224.308C20.2774 223.691 19.5477 223.42 18.8962 223.691C18.2447 223.962 17.958 224.653 18.2447 225.27C19.261 227.466 20.3816 229.637 21.6065 231.759C21.841 232.153 22.258 232.375 22.727 232.375C22.9355 232.375 23.144 232.326 23.3264 232.227C23.9519 231.907 24.1603 231.191 23.8216 230.599C22.6489 228.551 21.5543 226.454 20.564 224.332V224.308ZM37.6073 115.505C37.008 115.16 36.2262 115.357 35.8613 115.95C34.5844 118.047 33.3595 120.119 32.1608 122.167C31.822 122.759 32.0565 123.474 32.682 123.795C32.8644 123.894 33.0729 123.943 33.2814 123.943C33.7244 123.943 34.1674 123.721 34.4019 123.326C35.5747 121.279 36.7995 119.231 38.0504 117.158C38.4152 116.591 38.2067 115.851 37.5813 115.53L37.6073 115.505ZM281.842 239.284C279.653 240.443 277.464 241.553 275.275 242.664C274.65 242.984 274.415 243.7 274.754 244.292C274.989 244.687 275.432 244.933 275.875 244.933C276.083 244.933 276.292 244.884 276.474 244.785C278.663 243.675 280.878 242.54 283.093 241.381C283.693 241.06 283.927 240.32 283.588 239.752C283.25 239.185 282.468 238.963 281.868 239.284H281.842ZM255.157 252.088C252.864 253.075 250.596 254.037 248.329 254.975C247.678 255.246 247.391 255.937 247.678 256.554C247.886 256.998 248.355 257.269 248.85 257.269C249.007 257.269 249.189 257.245 249.345 257.171C251.639 256.233 253.932 255.246 256.225 254.259C256.851 253.988 257.137 253.272 256.851 252.68C256.564 252.088 255.808 251.817 255.183 252.088H255.157ZM268.63 245.92C266.389 247.006 264.148 248.042 261.932 249.054C261.307 249.35 261.046 250.065 261.333 250.657C261.542 251.077 262.011 251.323 262.48 251.323C262.662 251.323 262.845 251.274 263.027 251.2C265.268 250.164 267.509 249.128 269.777 248.042C270.402 247.746 270.637 247.03 270.324 246.438C270.011 245.846 269.255 245.6 268.63 245.92ZM213.33 267.36C210.933 268.075 208.535 268.742 206.164 269.383C205.486 269.556 205.095 270.222 205.304 270.863C205.46 271.381 205.981 271.727 206.529 271.727C206.633 271.727 206.763 271.727 206.868 271.678C209.265 271.036 211.663 270.345 214.086 269.63C214.764 269.432 215.129 268.766 214.92 268.125C214.712 267.483 214.008 267.138 213.33 267.335V267.36ZM241.449 257.738C239.13 258.651 236.811 259.514 234.491 260.353C233.84 260.6 233.501 261.291 233.762 261.908C233.944 262.376 234.439 262.672 234.934 262.672C235.091 262.672 235.247 262.648 235.403 262.598C237.723 261.759 240.068 260.871 242.387 259.958C243.039 259.712 243.352 258.996 243.065 258.404C242.804 257.787 242.049 257.491 241.423 257.763L241.449 257.738ZM227.507 262.845C225.136 263.659 222.79 264.424 220.445 265.189C219.793 265.411 219.428 266.077 219.637 266.719C219.819 267.212 220.315 267.533 220.836 267.533C220.966 267.533 221.096 267.533 221.253 267.459C223.624 266.694 225.996 265.929 228.367 265.115C229.019 264.893 229.357 264.202 229.123 263.585C228.888 262.968 228.159 262.648 227.507 262.87V262.845ZM294.794 232.178C292.631 233.412 290.494 234.596 288.357 235.78C287.758 236.101 287.55 236.841 287.888 237.408C288.123 237.803 288.54 238.001 288.983 238.001C289.191 238.001 289.426 237.951 289.608 237.828C291.771 236.644 293.934 235.435 296.097 234.201C296.697 233.856 296.879 233.116 296.54 232.548C296.175 231.981 295.394 231.808 294.794 232.129V232.178ZM319.864 216.709C317.805 218.066 315.747 219.398 313.688 220.73C313.114 221.1 312.958 221.841 313.349 222.408C313.584 222.753 314.001 222.926 314.391 222.926C314.626 222.926 314.887 222.852 315.095 222.729C317.154 221.397 319.239 220.064 321.297 218.683C321.871 218.313 322.001 217.548 321.61 217.005C321.219 216.462 320.411 216.339 319.838 216.709H319.864ZM333.754 208.641C333.337 208.123 332.529 208 331.982 208.395C329.975 209.826 327.969 211.207 325.962 212.589C325.389 212.983 325.258 213.724 325.675 214.266C325.936 214.587 326.301 214.76 326.692 214.76C326.952 214.76 327.213 214.686 327.448 214.538C329.454 213.156 331.487 211.75 333.493 210.319C334.041 209.924 334.171 209.159 333.754 208.641ZM307.459 224.653C305.349 225.961 303.264 227.219 301.153 228.477C300.553 228.823 300.371 229.563 300.762 230.13C300.997 230.5 301.413 230.698 301.83 230.698C302.065 230.698 302.3 230.648 302.508 230.525C304.619 229.267 306.73 227.984 308.841 226.676C309.44 226.306 309.596 225.566 309.205 225.023C308.815 224.481 308.033 224.308 307.459 224.678V224.653ZM125.065 279.375C122.563 279.276 120.087 279.128 117.612 278.931C116.882 278.832 116.309 279.375 116.257 280.017C116.205 280.683 116.726 281.25 117.403 281.3C119.879 281.497 122.407 281.645 124.935 281.744H124.987C125.664 281.744 126.212 281.25 126.264 280.609C126.29 279.943 125.743 279.375 125.065 279.35V279.375ZM137.209 11.9089C137.756 11.4895 137.808 10.7246 137.365 10.2065C136.922 9.7131 136.114 9.63908 135.567 10.0585C133.639 11.6128 131.736 13.1425 129.86 14.6721C129.339 15.1162 129.261 15.8564 129.73 16.3745C129.99 16.6459 130.329 16.7939 130.694 16.7939C130.981 16.7939 131.293 16.6952 131.528 16.4978C133.404 14.9682 135.307 13.4385 137.235 11.8842L137.209 11.9089ZM124.179 19.3597C122.277 20.9387 120.4 22.5177 118.576 24.0967C118.055 24.5408 118.003 25.3056 118.472 25.7991C118.732 26.0705 119.071 26.1938 119.41 26.1938C119.723 26.1938 120.009 26.0951 120.27 25.8978C122.094 24.3188 123.97 22.7644 125.873 21.1855C126.394 20.7414 126.446 20.0012 125.977 19.4831C125.508 18.9897 124.7 18.9403 124.179 19.3844V19.3597ZM198.945 271.233C196.522 271.826 194.098 272.393 191.701 272.936C191.023 273.084 190.606 273.725 190.762 274.367C190.893 274.91 191.414 275.304 191.987 275.304C192.091 275.304 192.17 275.304 192.274 275.28C194.697 274.737 197.147 274.169 199.597 273.577C200.274 273.405 200.691 272.763 200.509 272.122C200.326 271.48 199.623 271.085 198.971 271.258L198.945 271.233ZM139.971 279.474C138.043 279.523 136.14 279.548 134.264 279.548H132.518C131.867 279.449 131.241 280.066 131.241 280.732C131.241 281.398 131.788 281.941 132.492 281.941H134.264C136.167 281.941 138.095 281.941 140.049 281.867C140.753 281.867 141.3 281.299 141.274 280.633C141.274 279.967 140.701 279.474 139.971 279.474ZM110.211 278.191C107.709 277.895 105.259 277.549 102.836 277.179C102.158 277.081 101.481 277.5 101.376 278.166C101.246 278.832 101.715 279.449 102.419 279.548C104.868 279.943 107.37 280.288 109.898 280.584C109.95 280.584 110.002 280.584 110.054 280.584C110.68 280.584 111.227 280.14 111.305 279.523C111.383 278.857 110.888 278.265 110.211 278.191ZM113.025 28.883C111.175 30.5114 109.325 32.1397 107.527 33.7434C107.031 34.2121 107.005 34.9523 107.474 35.4457C107.735 35.6924 108.048 35.8158 108.386 35.8158C108.699 35.8158 109.012 35.7171 109.246 35.4951C111.045 33.8914 112.869 32.2631 114.719 30.6594C115.24 30.2153 115.266 29.4505 114.797 28.957C114.328 28.4636 113.52 28.4389 112.999 28.883H113.025ZM169.706 276.933C167.23 277.278 164.754 277.599 162.305 277.895C161.601 277.969 161.106 278.561 161.21 279.227C161.288 279.844 161.836 280.288 162.461 280.288C162.513 280.288 162.565 280.288 162.618 280.288C165.093 280.017 167.569 279.696 170.097 279.326C170.8 279.227 171.269 278.61 171.165 277.969C171.061 277.303 170.436 276.859 169.732 276.957L169.706 276.933ZM184.404 274.441C181.954 274.91 179.504 275.378 177.055 275.773C176.377 275.896 175.908 276.513 176.038 277.155C176.143 277.747 176.69 278.142 177.289 278.142C177.368 278.142 177.446 278.142 177.524 278.142C179.974 277.722 182.449 277.278 184.925 276.785C185.603 276.661 186.046 276.02 185.915 275.354C185.785 274.712 185.107 274.293 184.43 274.416L184.404 274.441ZM148.936 1.15201C148.493 0.633903 147.685 0.559879 147.164 0.979298C145.209 2.48427 143.255 3.98925 141.352 5.49423C140.805 5.91365 140.727 6.67847 141.196 7.19658C141.457 7.49264 141.822 7.64067 142.186 7.64067C142.473 7.64067 142.76 7.54198 142.994 7.36928C144.897 5.8643 146.825 4.384 148.78 2.87902C149.327 2.4596 149.405 1.69478 148.962 1.20134L148.936 1.15201ZM154.852 278.635C152.35 278.857 149.874 279.03 147.398 279.153C146.695 279.202 146.174 279.77 146.2 280.411C146.252 281.053 146.799 281.546 147.451 281.546H147.529C150.004 281.398 152.532 281.225 155.06 281.003C155.764 280.954 156.259 280.362 156.207 279.696C156.155 279.03 155.529 278.586 154.826 278.61L154.852 278.635Z" fill="white"/>
<path d="M375.937 184.333C379.655 181.4 383.688 177.165 383.038 176.377C382.387 175.589 377.313 178.522 373.595 181.473C373.261 181.748 372.926 182.005 372.61 182.261C371.959 182.151 370.603 181.931 368.874 181.656C368.892 181.656 368.93 181.656 368.948 181.656L369.952 180.868C370.082 180.776 370.082 180.575 369.952 180.446L369.171 179.493C369.06 179.347 368.874 179.31 368.744 179.42L367.74 180.208C367.74 180.208 367.666 180.318 367.647 180.391L366.476 181.308C365.008 181.07 363.409 180.813 361.829 180.556L362.814 179.787C362.944 179.695 362.944 179.493 362.814 179.365L362.034 178.412C361.922 178.265 361.736 178.228 361.606 178.338L360.602 179.127C360.602 179.127 360.528 179.237 360.509 179.31L359.376 180.19C355.361 179.548 351.996 179.035 351.885 179.072C351.606 179.163 350.175 180.373 350.175 180.373C349.822 180.648 349.58 180.905 349.599 180.941C349.636 180.978 350.045 180.703 350.379 180.446L357.759 183.104C357.498 183.343 357.35 183.563 357.405 183.636C357.48 183.728 357.814 183.563 358.149 183.288L358.186 183.251L359.636 183.783C359.394 184.003 359.246 184.223 359.301 184.296C359.376 184.388 359.71 184.223 360.045 183.948L361.365 184.406L362.164 184.974C361.866 185.231 361.662 185.487 361.718 185.561C361.792 185.652 362.127 185.487 362.461 185.212H362.48L364.06 186.312C363.762 186.569 363.558 186.826 363.632 186.899C363.707 186.991 364.041 186.826 364.376 186.551L365.826 187.577C363.353 189.575 362.387 190.382 360.547 191.848C358.688 193.315 356.996 194.854 355.64 196.229C353.446 195.899 349.115 195.184 349.115 195.184L348 195.918L352.703 199.51C352.442 199.859 352.238 200.134 352.126 200.354C351.402 201.013 350.974 201.453 351.03 201.527C351.086 201.6 351.606 201.307 352.387 200.757C352.628 200.683 352.963 200.518 353.39 200.317L355.937 205.688L356.922 204.79C356.922 204.79 357.182 200.17 357.331 198.062C358.93 197.072 360.751 195.899 362.647 194.598C364.952 192.783 365.993 192.013 368.13 190.363L368.818 191.976C368.465 192.27 368.242 192.545 368.316 192.636C368.372 192.71 368.669 192.581 369.004 192.343L369.766 194.121H369.748C369.394 194.414 369.171 194.708 369.246 194.781C369.301 194.854 369.617 194.726 369.933 194.488L370.324 195.368L370.51 196.742C370.156 197.017 369.933 197.311 370.008 197.402C370.064 197.476 370.305 197.384 370.584 197.182L370.788 198.704H370.751C370.398 198.997 370.175 199.29 370.249 199.382C370.305 199.455 370.565 199.345 370.844 199.144L371.848 206.824C371.532 207.099 371.16 207.429 371.179 207.466C371.216 207.502 371.513 207.319 371.867 207.044C371.867 207.044 373.391 205.926 373.521 205.688C373.577 205.596 373.8 202.242 374.06 198.245L375.194 197.366C375.194 197.366 375.342 197.366 375.398 197.329L376.402 196.541C376.532 196.449 376.532 196.247 376.402 196.119L375.621 195.166C375.51 195.019 375.324 194.983 375.194 195.093L374.209 195.863C374.301 194.286 374.394 192.71 374.487 191.225L375.658 190.308C375.658 190.308 375.807 190.308 375.863 190.272L376.867 189.483C376.997 189.392 376.997 189.19 376.867 189.062L376.086 188.109C375.974 187.962 375.789 187.925 375.658 188.035L374.655 188.824C374.655 188.824 374.655 188.86 374.617 188.897C374.729 187.192 374.803 185.854 374.841 185.194C375.157 184.937 375.491 184.681 375.844 184.406L375.937 184.333Z" fill="white"/>
</svg>
