<svg width="48" height="48" viewBox="0 0 48 48" fill="none" xmlns="http://www.w3.org/2000/svg">
<path d="M30.8677 0.189862C29.5829 0.325108 28.3657 1.20421 27.6894 2.48905C26.8103 4.24726 20.3185 17.2985 19.0337 18.5834C17.7488 19.8682 16.0582 20.4768 14.1648 20.4768V47.5261H37.8329C39.253 47.5261 40.4702 46.647 41.0112 45.4298C41.0112 45.4298 47.9764 25.7514 47.9764 23.858C47.9764 21.9645 46.4887 20.4768 44.5952 20.4768H34.4518C32.5583 20.4768 31.0706 18.7863 31.0706 17.0957C31.0706 15.4051 33.7079 6.4112 34.2489 4.653C34.7899 2.89479 33.9108 1.00134 32.1526 0.392732C31.6792 0.257485 31.3411 0.122239 30.8677 0.189862ZM0.640137 20.4768V47.5261H7.40246V20.4768H0.640137Z" fill="url(#paint0_linear_839_1998)"/>
<defs>
<linearGradient id="paint0_linear_839_1998" x1="24.3083" y1="0.171875" x2="24.3083" y2="47.5261" gradientUnits="userSpaceOnUse">
<stop stop-color="#8F55BB"/>
<stop offset="1" stop-color="#EE5EA2"/>
</linearGradient>
</defs>
</svg>
