<svg width="16" height="17" viewBox="0 0 16 17" fill="none" xmlns="http://www.w3.org/2000/svg">
<path d="M11.9602 9.8711C11.7937 10.0324 11.7173 10.2657 11.7552 10.4944L12.3265 13.6561C12.3747 13.9241 12.2616 14.1953 12.0373 14.3501C11.8175 14.5108 11.5251 14.5301 11.2854 14.4015L8.43929 12.9171C8.34033 12.8644 8.23044 12.8361 8.11798 12.8329H7.94384C7.88343 12.8419 7.82431 12.8612 7.77033 12.8908L4.92354 14.3823C4.78281 14.4529 4.62344 14.478 4.46729 14.4529C4.08686 14.381 3.83303 14.0185 3.89536 13.6362L4.46729 10.4745C4.5052 10.2438 4.42873 10.0093 4.26229 9.8454L1.94181 7.59624C1.74774 7.40796 1.68026 7.12521 1.76895 6.87009C1.85506 6.61561 2.07483 6.4299 2.34023 6.38813L5.53403 5.9248C5.77694 5.89974 5.99029 5.75194 6.09953 5.53345L7.50686 2.64811C7.54027 2.58385 7.58333 2.52473 7.63538 2.4746L7.69322 2.42962C7.72342 2.3962 7.75812 2.36857 7.79668 2.34608L7.86672 2.32037L7.97597 2.27539H8.24651C8.48813 2.30045 8.70084 2.44504 8.81201 2.66096L10.238 5.53345C10.3408 5.74358 10.5406 5.88946 10.7713 5.9248L13.9651 6.38813C14.235 6.42668 14.4606 6.61304 14.5499 6.87009C14.6341 7.12778 14.5615 7.41053 14.3636 7.59624L11.9602 9.8711Z" fill="#FFCD6B"/>
</svg>
