<svg width="20" height="20" viewBox="0 0 20 20" fill="none" xmlns="http://www.w3.org/2000/svg">
<path fill-rule="evenodd" clip-rule="evenodd" d="M1.4458 10.1319C1.4458 6.58647 1.4458 4.81376 2.29065 3.53692C2.66791 2.96675 3.15621 2.47846 3.72638 2.10119C5.00321 1.25635 6.77592 1.25635 10.3214 1.25635C13.8668 1.25635 15.6395 1.25635 16.9163 2.10119C17.4865 2.47846 17.9748 2.96675 18.3521 3.53692C19.1969 4.81376 19.1969 6.58647 19.1969 10.1319C19.1969 13.6773 19.1969 15.45 18.3521 16.7269C17.9748 17.297 17.4865 17.7853 16.9163 18.1626C15.6395 19.0075 13.8668 19.0075 10.3214 19.0075C6.77592 19.0075 5.00321 19.0075 3.72638 18.1626C3.15621 17.7853 2.66791 17.297 2.29065 16.7269C1.4458 15.45 1.4458 13.6773 1.4458 10.1319ZM14.9159 10.1319C14.9159 12.6697 12.8586 14.7269 10.3209 14.7269C7.78314 14.7269 5.7259 12.6697 5.7259 10.1319C5.7259 7.59418 7.78314 5.53694 10.3209 5.53694C12.8586 5.53694 14.9159 7.59418 14.9159 10.1319ZM10.3209 13.1723C12 13.1723 13.3613 11.8111 13.3613 10.1319C13.3613 8.45276 12 7.09154 10.3209 7.09154C8.64173 7.09154 7.28051 8.45276 7.28051 10.1319C7.28051 11.8111 8.64173 13.1723 10.3209 13.1723ZM15.0978 6.38624C15.6943 6.38624 16.1779 5.9027 16.1779 5.30623C16.1779 4.70975 15.6943 4.22621 15.0978 4.22621C14.5014 4.22621 14.0178 4.70975 14.0178 5.30623C14.0178 5.9027 14.5014 6.38624 15.0978 6.38624Z" fill="#F95F9F"/>
</svg>
