<svg width="19" height="19" viewBox="0 0 19 19" fill="none" xmlns="http://www.w3.org/2000/svg">
<path d="M0.878906 3.13617C0.878906 2.56694 1.07881 2.09733 1.47861 1.72735C1.8784 1.35735 2.39815 1.17236 3.03782 1.17236C3.66609 1.17236 4.17439 1.3545 4.56277 1.71881C4.96257 2.0945 5.16247 2.58402 5.16247 3.1874C5.16247 3.73385 4.96829 4.18921 4.57991 4.55352C4.18011 4.92921 3.65466 5.11705 3.00356 5.11705H2.98642C2.35816 5.11705 1.84985 4.92921 1.46147 4.55352C1.07309 4.17784 0.878906 3.70538 0.878906 3.13617ZM1.10165 18.0782V6.67102H4.90546V18.0782H1.10165ZM7.01297 18.0782H10.8168V11.7086C10.8168 11.3101 10.8625 11.0028 10.9539 10.7865C11.1138 10.3994 11.3565 10.0721 11.6821 9.80457C12.0076 9.53703 12.416 9.40327 12.9072 9.40327C14.1865 9.40327 14.8262 10.2628 14.8262 11.9818V18.0782H18.63V11.5378C18.63 9.85295 18.2302 8.57506 17.4306 7.70415C16.631 6.83325 15.5744 6.39779 14.2608 6.39779C12.7872 6.39779 11.6392 7.02963 10.8168 8.29329V8.32745H10.7996L10.8168 8.29329V6.67102H7.01297C7.03581 7.03531 7.04724 8.16805 7.04724 10.0693C7.04724 11.9704 7.03581 14.6401 7.01297 18.0782Z" fill="#F95F9F"/>
</svg>
