<svg width="18" height="16" viewBox="0 0 18 16" fill="none" xmlns="http://www.w3.org/2000/svg">
<path d="M11.8734 0.934349V0.931152H12.7058L13.0099 0.991893C13.2126 1.03133 13.3967 1.083 13.5621 1.14694C13.7275 1.21088 13.8876 1.28548 14.0423 1.37072C14.197 1.45596 14.3374 1.54282 14.4633 1.63126C14.5881 1.71865 14.7002 1.81136 14.7994 1.90939C14.8976 2.00849 15.0507 2.03407 15.2588 1.98612C15.4669 1.93816 15.691 1.87156 15.9311 1.78631C16.1712 1.70107 16.4086 1.60516 16.6433 1.49859C16.8781 1.39203 17.0211 1.32437 17.0723 1.29559C17.1225 1.26577 17.1492 1.24978 17.1524 1.24764L17.1556 1.24285L17.1716 1.23485L17.1876 1.22686L17.2036 1.21887L17.2196 1.21088L17.2228 1.20608L17.2276 1.20289L17.2324 1.19969L17.2356 1.19489L17.2516 1.1901L17.2676 1.1869L17.2644 1.21088L17.2596 1.23485L17.2516 1.25883L17.2436 1.28281L17.2356 1.29879L17.2276 1.31478L17.2196 1.33875C17.2143 1.35474 17.2089 1.37604 17.2036 1.40269C17.1982 1.42933 17.1476 1.53589 17.0515 1.72237C16.9555 1.90886 16.8354 2.09801 16.6914 2.28982C16.5473 2.48163 16.4182 2.62654 16.304 2.72459C16.1888 2.82369 16.1125 2.89295 16.0751 2.93238C16.0378 2.97287 15.9924 3.01016 15.9391 3.04427L15.859 3.09702L15.843 3.10502L15.827 3.11301L15.8238 3.1178L15.819 3.121L15.8142 3.1242L15.811 3.12899L15.795 3.13698L15.779 3.14498L15.7758 3.14977L15.771 3.15297L15.7662 3.15616L15.763 3.16096L15.7598 3.16576L15.755 3.16895L15.7502 3.17215L15.747 3.17694H15.827L16.2752 3.08104C16.574 3.0171 16.8594 2.93985 17.1315 2.84927L17.5637 2.70541L17.6117 2.68942L17.6357 2.68143L17.6518 2.67344L17.6678 2.66545L17.6838 2.65745L17.6998 2.64946L17.7318 2.64467L17.7638 2.64147V2.67344L17.7558 2.67664L17.7478 2.68143L17.7446 2.68623L17.7398 2.68942L17.735 2.69262L17.7318 2.69742L17.7286 2.70221L17.7238 2.70541L17.719 2.7086L17.7158 2.7134L17.7126 2.7182L17.7078 2.72139L17.6998 2.73738L17.6918 2.75336L17.687 2.75656C17.6848 2.75975 17.6171 2.85032 17.4837 3.02829C17.3503 3.20731 17.2783 3.29788 17.2676 3.30002C17.2569 3.30322 17.242 3.3192 17.2228 3.34798C17.2046 3.3778 17.0915 3.49663 16.8834 3.70443C16.6754 3.91222 16.4716 4.0971 16.272 4.25908C16.0714 4.42212 15.97 4.62245 15.9679 4.86009C15.9647 5.09666 15.9524 5.36414 15.9311 5.6625C15.9097 5.96088 15.8697 6.28322 15.811 6.62955C15.7523 6.97588 15.6616 7.3675 15.5389 7.80439C15.4162 8.24129 15.2668 8.66755 15.0907 9.08314C14.9147 9.49873 14.7306 9.87169 14.5385 10.202C14.3464 10.5324 14.1704 10.8121 14.0103 11.0412C13.8502 11.2703 13.6875 11.4861 13.5221 11.6886C13.3567 11.891 13.1476 12.1191 12.8947 12.3727C12.6407 12.6253 12.502 12.7638 12.4785 12.7883C12.454 12.8117 12.3494 12.8991 12.1648 13.0504C11.9812 13.2028 11.7838 13.3552 11.5725 13.5076C11.3623 13.6589 11.1692 13.7852 10.9931 13.8864C10.817 13.9876 10.6047 14.1033 10.356 14.2333C10.1085 14.3643 9.84063 14.4858 9.55251 14.5977C9.2644 14.7096 8.96028 14.8135 8.64015 14.9094C8.32002 15.0053 8.01057 15.0799 7.71178 15.1332C7.413 15.1865 7.07419 15.2318 6.69537 15.2691L6.12714 15.325V15.333H5.08673V15.325L4.95067 15.317C4.85998 15.3117 4.78528 15.3063 4.72658 15.301C4.6679 15.2957 4.44647 15.2664 4.06232 15.2131C3.67816 15.1598 3.37671 15.1065 3.15795 15.0533C2.93921 15 2.61374 14.8987 2.18156 14.7496C1.74939 14.6004 1.37964 14.4496 1.07232 14.2972C0.766069 14.1459 0.573992 14.05 0.496089 14.0095C0.419258 13.9701 0.332823 13.9211 0.236785 13.8624L0.0927273 13.7745L0.0895421 13.7697L0.0847241 13.7665L0.0799222 13.7633L0.0767209 13.7585L0.0607145 13.7505L0.0447081 13.7426L0.0415228 13.7378L0.0367049 13.7346L0.031903 13.7314L0.0287017 13.7266L0.0255164 13.7218L0.0206985 13.7186H0.0126953V13.6866L0.0287017 13.6898L0.0447081 13.6946L0.116737 13.7026C0.164756 13.7079 0.29548 13.7159 0.508894 13.7266C0.722323 13.7372 0.94907 13.7372 1.18917 13.7266C1.42926 13.7159 1.6747 13.6919 1.92546 13.6546C2.17623 13.6174 2.47235 13.5534 2.81382 13.4628C3.1553 13.3722 3.46902 13.2646 3.75501 13.1399C4.03992 13.0142 4.24266 12.9204 4.36325 12.8586C4.48276 12.7979 4.66523 12.6849 4.91066 12.5198L5.2788 12.272L5.282 12.2672L5.28681 12.264L5.29162 12.2608L5.29481 12.256L5.29801 12.2512L5.30281 12.248L5.30763 12.2448L5.31082 12.24L5.32682 12.2352L5.34283 12.232L5.34603 12.2161L5.35083 12.2001L5.35565 12.1969L5.35883 12.1921L5.23078 12.1841C5.14542 12.1788 5.06272 12.1734 4.98268 12.1681C4.90265 12.1628 4.77727 12.1388 4.60653 12.0962C4.43581 12.0535 4.25174 11.9896 4.05431 11.9044C3.85691 11.8191 3.66483 11.7179 3.47808 11.6007C3.29135 11.4834 3.15635 11.3859 3.07312 11.3081C2.99096 11.2314 2.88424 11.1227 2.75299 10.9821C2.62281 10.8404 2.50969 10.6949 2.41366 10.5457C2.31762 10.3965 2.22585 10.2244 2.13836 10.0294L2.00549 9.73849L1.99749 9.71452L1.98949 9.69054L1.98468 9.67456L1.98148 9.65857L2.00549 9.66177L2.0295 9.66656L2.20557 9.69054C2.32296 9.70652 2.50704 9.71185 2.75779 9.70652C3.00857 9.7012 3.18196 9.69054 3.278 9.67456C3.37404 9.65857 3.43274 9.64791 3.45407 9.64259L3.48609 9.63459L3.5261 9.6266L3.56612 9.61861L3.56932 9.61382L3.57412 9.61062L3.57894 9.60742L3.58212 9.60263L3.55011 9.59463L3.5181 9.58664L3.48609 9.57865L3.45407 9.57066L3.42206 9.56267C3.40072 9.55734 3.36338 9.54668 3.31001 9.5307C3.25667 9.51471 3.11261 9.4561 2.87784 9.35487C2.64309 9.25364 2.45635 9.15507 2.31762 9.05916C2.17855 8.96298 2.04594 8.85779 1.92066 8.74427C1.79581 8.62918 1.6587 8.48106 1.50929 8.29991C1.35991 8.11876 1.22652 7.90829 1.10913 7.66853C0.991759 7.42876 0.903724 7.19966 0.845028 6.9812C0.786569 6.76403 0.748 6.542 0.729798 6.31786L0.700971 5.98219L0.716977 5.98538L0.732984 5.99018L0.74899 5.99817L0.764996 6.00616L0.781003 6.01415L0.797009 6.02215L1.04511 6.13404C1.21052 6.20864 1.41593 6.27257 1.66136 6.32585C1.9068 6.37912 2.05351 6.40844 2.10153 6.41376L2.17356 6.42175H2.31762L2.31443 6.41696L2.30961 6.41376L2.30481 6.41056L2.30161 6.40577L2.29843 6.40097L2.29361 6.39778L2.28881 6.39458L2.2856 6.38979L2.2696 6.38179L2.25359 6.3738L2.25041 6.36901L2.24559 6.36581L2.24079 6.36261L2.23759 6.35782L2.22158 6.34982L2.20557 6.34183L2.20239 6.33704C2.19919 6.3349 2.1533 6.3008 2.06472 6.23474C1.97721 6.1676 1.88544 6.08076 1.78941 5.97419C1.69337 5.86763 1.59733 5.75574 1.50129 5.63852C1.40508 5.52104 1.31938 5.39535 1.24519 5.26289C1.1705 5.1297 1.09153 4.96025 1.00829 4.75459C0.926133 4.54999 0.863708 4.3438 0.821019 4.136C0.778346 3.92821 0.754336 3.72308 0.74899 3.52061C0.74366 3.31813 0.74899 3.14498 0.764996 3.00112C0.781003 2.85726 0.813016 2.69475 0.861035 2.5136C0.909054 2.33245 0.978426 2.14064 1.06912 1.93816L1.20517 1.63446L1.21318 1.61048L1.22118 1.58651L1.226 1.58331L1.22918 1.57852L1.23238 1.57372L1.23719 1.57052L1.242 1.57372L1.24519 1.57852L1.24839 1.58331L1.25319 1.58651L1.25801 1.5897L1.26119 1.5945L1.2644 1.5993L1.2692 1.60249L1.2772 1.61848L1.2852 1.63446L1.29002 1.63766L1.29321 1.64245L1.50929 1.88222C1.65335 2.04206 1.82409 2.22056 2.0215 2.41769C2.21892 2.61482 2.32829 2.71712 2.34963 2.72459C2.37098 2.73311 2.39765 2.75761 2.42966 2.79812C2.46168 2.83755 2.56839 2.93186 2.74979 3.08104C2.93121 3.23022 3.16863 3.40339 3.46208 3.60053C3.75554 3.79766 4.081 3.99214 4.43847 4.18395C4.79595 4.37577 5.18011 4.54892 5.59093 4.70344C6.00176 4.85796 6.28988 4.95919 6.45527 5.00714C6.62068 5.0551 6.90345 5.11637 7.30361 5.19096C7.70377 5.26556 8.00524 5.31352 8.20797 5.33482C8.41073 5.35613 8.54945 5.36839 8.62414 5.37159L8.73619 5.37478L8.733 5.35081L8.72818 5.32683L8.69617 5.12703C8.67483 4.99383 8.66416 4.80734 8.66416 4.56758C8.66416 4.32781 8.68284 4.1067 8.72018 3.90423C8.75754 3.70176 8.81356 3.49663 8.88825 3.28883C8.96295 3.08104 9.03605 2.91426 9.10753 2.78853C9.18011 2.66385 9.27507 2.52159 9.39245 2.36175C9.50984 2.2019 9.6619 2.03674 9.84863 1.86623C10.0354 1.69573 10.2488 1.54388 10.4889 1.41068C10.729 1.27748 10.9504 1.17624 11.1532 1.10698C11.3559 1.03772 11.5266 0.99242 11.6654 0.971113C11.8041 0.949806 11.8734 0.937546 11.8734 0.934349Z" fill="#F95F9F"/>
</svg>
