<svg width="22" height="16" viewBox="0 0 22 16" fill="none" xmlns="http://www.w3.org/2000/svg">
<path d="M11.6063 15.0149L7.60032 14.94C6.30326 14.9139 5.00297 14.966 3.73134 14.6957C1.7969 14.2919 1.65986 12.3118 1.51646 10.6508C1.31887 8.3157 1.39536 5.93821 1.76824 3.62261C1.97874 2.32331 2.80716 1.54801 4.08828 1.46364C8.41299 1.15746 12.7665 1.19375 17.0816 1.33659C17.5373 1.34969 17.9962 1.42126 18.4456 1.50273C20.6638 1.90007 20.7179 4.14401 20.8616 6.03298C21.005 7.94144 20.9445 9.8597 20.6704 11.7552C20.4505 13.3246 20.0298 14.6407 18.2543 14.7677C16.0298 14.9338 13.8562 15.0676 11.6254 15.025C11.6255 15.0149 11.6127 15.0149 11.6063 15.0149ZM9.25119 11.0416C10.9276 10.058 12.572 9.0908 14.2388 8.11378C12.5593 7.13016 10.918 6.16293 9.25119 5.18591V11.0416Z" fill="#F95F9F"/>
</svg>
